<svg width="24" height="24" viewBox="0 0 24 24" fill="none" xmlns="http://www.w3.org/2000/svg">
    <circle cx="12" cy="12" r="12" fill="#F5EB51"/>
    <g clip-path="url(#clip0_6_21433)">
        <path d="M16.1996 12.4927C16.3142 12.2602 16.3683 12.002 16.3566 11.7424C16.3449 11.4829 16.268 11.2307 16.1329 11.0097C15.9979 10.7888 15.8094 10.6065 15.5852 10.48C15.361 10.3536 15.1087 10.2873 14.852 10.2873H12.3442C12.2989 10.2873 12.254 10.2783 12.2122 10.2607C12.1704 10.2431 12.1324 10.2173 12.1004 10.1848C12.0684 10.1524 12.0431 10.1138 12.0259 10.0714C12.0086 10.029 11.9998 9.98351 12 9.93765V4.31657C11.9996 4.24424 11.9751 4.17417 11.9304 4.11777C11.8857 4.06137 11.8234 4.02196 11.7537 4.00597C11.684 3.98998 11.6111 3.99834 11.5467 4.0297C11.4823 4.06106 11.4303 4.11356 11.3992 4.17866L7.83325 11.5224C7.71955 11.7553 7.66647 12.0137 7.67906 12.2732C7.69165 12.5327 7.76948 12.7847 7.90517 13.0052C8.04087 13.2257 8.22994 13.4074 8.45446 13.5332C8.67898 13.659 8.93151 13.7247 9.18812 13.724H11.6558C11.7454 13.724 11.8315 13.7593 11.8958 13.8226C11.9601 13.8858 11.9975 13.9719 12 14.0626V19.6837C12.0004 19.7561 12.0249 19.8261 12.0696 19.8825C12.1144 19.9389 12.1766 19.9783 12.2463 19.9943C12.316 20.0103 12.3889 20.002 12.4533 19.9706C12.5177 19.9392 12.5697 19.8867 12.6008 19.8216L16.1996 12.4927Z" fill="#282828"/>
    </g>
    <defs>
        <clipPath id="clip0_6_21433">
            <rect width="9" height="16.5" fill="white" transform="translate(7.5 3.75)"/>
        </clipPath>
    </defs>
</svg>
