<svg width="1440" height="194" viewBox="0 0 1440 194" fill="none" xmlns="http://www.w3.org/2000/svg">
    <path opacity="0.31" d="M0 292C479.654 292 959.307 292 1438.96 292M0 283.838C242.885 283.898 485.649 282.439 728.474 280.788C833.538 280.069 939.322 280.305 1044.38 281.819C1175.88 283.712 1307.45 281.929 1438.92 283.838M0 275.796C68.8203 275.796 137.661 276.087 206.471 275.944C267.966 275.818 329.322 273.081 390.798 272.609C505.315 271.731 619.812 272.752 734.32 271.715C835.956 270.793 938.642 268.352 1040.21 272.077C1099.41 274.271 1157.99 275.27 1217.24 276.175C1291.19 277.305 1365.04 274.238 1438.96 275.796M0 267.864C67.831 267.864 135.842 268.49 203.653 267.815C267.377 267.179 330.731 262.719 394.405 261.573C509.142 259.505 622.98 265.412 737.597 264.359C838.455 263.449 937.883 256.054 1038.85 262.67C1097.87 266.537 1155.06 269.565 1214.5 270.448C1289.45 271.545 1364.02 266.208 1438.96 267.864M0 260.086C66.6019 260.086 133.693 261.084 200.245 259.707C266.797 258.331 332.4 251.995 398.752 249.949C459.068 248.089 518.536 248.589 578.532 252.637C632.303 256.268 684.536 258.89 738.747 258.495C786.262 258.144 830.78 254.184 877.706 250.492C931.407 246.263 986.697 248.238 1039.9 253.624C1098.46 259.559 1153.69 265.237 1213.48 265.884C1288.91 266.707 1363.49 258.665 1438.96 260.086M0 252.417C65.1629 252.417 131.315 253.761 196.368 251.611C265.878 249.318 334.209 241.013 403.569 237.898C463.121 235.188 523.071 237.045 581.69 243.416C634.022 249.022 684.616 254.03 738.107 253.8C787.641 253.586 832.459 246.702 880.544 241.134C935.125 234.815 989.136 237.212 1042.89 244.875C1100.5 253.103 1153.68 261.968 1213.88 262.203C1289.44 262.505 1363.28 251.496 1438.96 252.423M0 244.87C63.6241 244.837 128.807 246.515 192.211 243.58C264.999 240.24 336.107 229.933 408.625 225.627C469.481 222.017 525.72 225.374 584.418 234.442C634.672 242.209 683.347 249.987 736.058 250.004C788.181 250.004 834.547 239.664 884.012 232.116C940.361 223.52 992.323 226.022 1047.38 236.406C1103.42 246.97 1154.88 259.444 1215.41 259.17C1290.86 258.797 1363.31 244.617 1438.96 244.87M0 237.442C62.0152 237.393 126.219 239.258 187.864 235.649C263.989 231.194 337.756 218.896 413.611 213.345C475.317 208.831 528.878 213.658 586.626 225.737C634.272 235.703 681.068 246.504 732.921 246.844C787.721 247.206 837.125 233.005 887.809 223.444C946.337 212.402 996.31 214.749 1052.87 228.205C1106.73 241.019 1156.95 257.469 1217.75 256.548C1292.93 255.407 1363.47 237.969 1438.94 237.442M0 230.136C60.4264 230.07 123.631 232.056 183.607 227.848C262.99 222.281 339.425 208.052 418.438 201.261C481.392 195.847 531.916 202.045 588.445 217.305C633.153 229.373 678.06 243.312 729.193 244.047C786.672 244.864 840.043 226.417 891.896 215.078C919.056 209.171 947.686 203.636 977.294 204.908C1006.27 206.159 1033.71 212.857 1059.06 220.268C1110.14 235.171 1159.9 255.687 1220.69 254.118C1295.53 252.182 1363.72 231.496 1438.97 230.152M0.0493164 222.955C59.0067 222.873 121.182 224.908 179.52 220.213C261.93 213.597 340.753 197.531 422.694 189.566C487.088 183.301 534.693 190.756 589.693 209.16C631.393 223.114 674.422 240.169 725.096 241.326C785.052 242.692 843.011 219.906 895.852 207.009C923.532 200.251 954.06 193.126 984.978 194.695C1013.96 196.165 1041.11 204.195 1065.34 212.522C1113.65 229.132 1162.91 253.789 1223.85 251.589C1298.37 248.89 1363.92 225.062 1438.98 222.955M0.0599365 215.901C57.6084 215.802 118.864 217.838 175.713 212.796C260.812 205.243 341.753 187.481 426.232 178.452C458.399 175.019 488.887 173.033 520.394 179.056C546.066 183.965 568.649 192.583 590.434 201.294C629.405 216.867 670.546 236.839 721.099 238.402C783.254 240.328 845.869 213.411 899.57 199.198C927.73 191.744 960.137 183.11 992.233 184.936C1021.34 186.582 1048.13 195.836 1071.33 204.974C1117.07 222.988 1165.74 251.501 1227 248.742C1301.26 245.391 1364.09 218.611 1439.02 215.874M0.0698242 208.962C56.4091 208.858 116.835 210.882 172.375 205.611C259.632 197.328 342.113 178.041 428.72 168.162C460.997 164.481 491.395 162.199 522.742 169.034C548.174 174.613 569.848 184.185 590.573 193.751C627.257 210.663 666.678 233.142 717.482 235.034C749.948 236.246 782.595 226.949 810.634 219.077C841.742 210.344 871.65 200.394 902.748 191.65C931.327 183.62 965.303 173.768 998.479 175.825C1027.8 177.641 1054.17 187.838 1076.53 197.657C1120.18 216.856 1167.93 248.594 1229.78 245.38C1303.91 241.54 1364.11 212.094 1439.03 208.94M0.079895 202.149C55.4099 202.045 115.197 204.075 169.667 198.704C258.463 189.955 341.903 169.352 429.959 158.859C462.086 155.019 492.714 152.567 523.742 159.89C549.143 165.885 570.168 176.28 590.144 186.505C625.298 204.492 663.231 228.836 714.654 230.937C748.01 232.286 781.605 222.215 810.085 213.888C842.232 204.481 873.039 193.773 905.186 184.355C934.165 175.858 969.14 165.233 1003.21 167.399C1032.83 169.286 1058.76 180.12 1080.51 190.504C1122.81 210.685 1169.1 244.699 1231.94 241.271C1306.07 237.228 1363.97 205.419 1439.04 202.171M0.0997925 195.457C54.6504 195.369 114.067 197.437 167.739 192.111C257.284 183.225 340.954 161.541 429.689 150.762C461.377 146.922 492.574 144.421 523.162 151.793C548.773 157.964 569.508 168.919 589.114 179.577C623.709 198.414 660.523 223.734 713.025 225.775C747.12 227.102 780.806 216.927 809.685 208.222C842.511 198.348 873.889 187.092 906.705 177.207C936.054 168.365 971.178 157.57 1005.94 159.72C1035.92 161.574 1061.4 172.605 1082.89 183.433C1124.86 204.579 1168.94 239.455 1233.25 236.06C1307.57 232.138 1363.72 198.37 1439.1 195.468M0.109802 188.875C54.4606 188.688 113.688 191.014 167.129 185.583C256.065 176.527 338.665 154.196 426.702 143.165C458.299 139.21 489.476 136.84 520.044 144.125C546.026 150.329 567.17 161.415 587.066 172.205C622.3 191.316 659.504 216.96 712.695 219.351C747.03 220.893 780.516 210.844 809.525 202.001C842.402 191.974 873.719 180.498 906.585 170.466C936.074 161.459 971.019 150.811 1006.04 153.115C1036.22 155.101 1061.55 166.154 1083.08 177.103C1125.22 198.545 1168.46 232.961 1233.28 229.763C1307.81 226.098 1363.39 191.409 1439.07 188.875M0.119751 182.44C54.7003 182.1 113.748 185.035 167.379 179.226C254.736 169.764 335.478 147.065 421.905 135.644C453.882 131.415 484.24 129.216 515.248 136.549C541.699 142.797 563.593 153.768 584.218 164.465C620.622 183.367 659.394 209.269 712.585 212.533C746.711 214.629 780.316 204.552 809.076 195.715C841.552 185.737 872.4 174.251 904.866 164.262C934.295 155.205 969.24 144.64 1004.21 147.378C1034.3 149.731 1060 160.943 1081.83 171.771C1124.19 192.78 1168.68 226.548 1232.72 223.444C1307.43 219.818 1363.19 184.931 1439.05 182.44M0.139893 176.116C55.0303 175.71 113.918 179.462 167.879 173.313C253.457 163.56 332.09 140.565 416.699 128.881C448.946 124.416 478.594 122.425 509.952 129.665C536.812 135.869 559.586 146.555 580.98 157.169C618.603 175.819 659.164 201.628 712.306 205.682C746.121 208.266 779.467 198.397 807.966 189.599C839.893 179.725 870.092 168.31 901.999 158.442C931.337 149.369 965.952 139.106 1000.77 142.232C1030.89 144.942 1057.05 156.204 1079.36 166.917C1122.28 187.487 1168.23 220.41 1231.78 217.349C1306.82 213.74 1362.89 178.628 1439.08 176.149M0.15979 169.912C55.4299 169.522 114.287 174.267 168.628 167.805C252.248 157.871 328.593 134.641 411.213 122.754C443.59 118.097 472.679 116.347 504.296 123.379C531.636 129.457 555.259 139.835 577.483 150.258C616.675 168.573 658.654 194.009 711.946 198.809C745.362 201.815 778.118 192.374 806.338 183.636C837.565 173.96 866.994 162.644 898.201 152.956C927.43 143.878 961.376 134.125 995.981 137.597C1026.24 140.642 1052.94 151.859 1075.92 162.424C1119.7 182.539 1167.29 214.453 1230.5 211.409C1306 207.772 1362.5 172.424 1439.15 169.928M0.169678 163.828C55.8894 163.521 114.727 169.407 169.557 162.665C251.078 152.644 324.995 129.205 405.487 117.252C437.844 112.436 466.533 110.938 498.31 117.663C526.14 123.555 550.592 133.571 573.726 143.675C614.696 161.574 657.955 186.401 711.446 191.892C775.999 198.523 841.232 164.009 893.545 147.74C922.664 138.678 955.69 129.6 989.995 133.401C1020.49 136.785 1047.75 147.893 1071.53 158.299C1116.41 177.942 1165.78 208.715 1228.83 205.654C1304.89 201.968 1361.93 166.363 1439.13 163.828M0.189758 157.871C56.3992 157.701 115.247 164.849 170.647 157.871C249.979 147.844 321.348 124.295 399.601 112.304C431.848 107.367 460.258 106.138 492.125 112.474C520.464 118.119 545.766 127.691 569.808 137.477C612.557 154.865 657.105 178.864 710.867 185.035C774.441 192.319 836.866 158.804 888.208 142.797C916.598 133.96 949.694 125.052 983.06 129.605C1014.04 133.829 1041.33 144.07 1066.45 154.492C1112.63 173.636 1163.89 203.164 1226.94 200.07C1303.65 196.313 1361.3 160.438 1439.15 157.833M0.209656 152.029C56.9487 152.029 115.856 160.548 171.876 153.313C248.95 143.357 317.7 119.709 393.646 107.784C525.55 87.0548 594.361 163.582 710.227 178.228C772.682 186.132 831.949 153.823 882.363 138.14C910.622 129.364 942.439 121.371 975.385 126.182C1006.75 130.762 1034.68 140.779 1060.81 151.004C1108.43 169.654 1161.68 197.838 1224.87 194.695C1302.28 190.855 1360.61 154.701 1439.18 152.029M0.229675 146.313C57.5183 146.544 116.526 156.461 173.215 149.012C247.991 139.188 314.113 115.486 387.69 103.665C516.867 82.9188 595.54 155.776 709.537 171.469C770.913 179.928 826.623 149.051 876.117 133.67C904.257 124.926 934.685 117.987 967.161 123.017C998.948 127.954 1027.59 137.718 1054.77 147.729C1103.91 165.831 1159.19 192.66 1222.65 189.445C1300.82 185.49 1359.88 149.073 1439.21 146.313M0.249634 140.718C58.1078 141.185 117.235 152.55 174.634 144.915C247.121 135.271 310.536 111.542 381.834 99.8797C508.273 79.1943 596.679 148.069 708.828 164.81C769.104 173.806 821.027 144.448 869.652 129.369C897.692 120.675 926.611 114.849 958.588 120.044C990.814 125.304 1020.19 134.855 1048.45 144.619C1099.18 162.172 1156.49 187.602 1220.27 184.316C1299.21 180.241 1359.05 143.549 1439.17 140.696M0.269531 135.244C58.6873 135.952 117.985 148.771 176.143 140.976C246.392 131.552 307.188 107.812 376.188 96.3471C499.939 75.7823 597.798 140.521 708.108 158.266C767.296 167.789 815.321 139.994 863.116 125.206C891.036 116.566 918.546 111.887 949.994 117.268C982.67 122.863 1012.82 132.172 1042.14 141.695C1094.45 158.7 1153.79 182.726 1217.96 179.357C1297.73 175.167 1358.31 138.217 1439.23 135.244M0.289551 129.896C59.247 130.839 118.744 145.079 177.572 137.153C245.662 127.976 303.89 104.241 370.692 93.001C491.994 72.5953 598.927 133.121 707.449 151.859C765.557 161.897 809.675 135.666 856.691 121.141C884.491 112.556 910.652 109.024 941.5 114.559C974.626 120.494 1005.53 129.589 1035.9 138.848C1089.75 155.271 1151.07 177.942 1215.68 174.503C1296.25 170.197 1357.58 132.946 1439.29 129.907M0.30957 124.663C59.8566 125.831 119.493 141.437 179.04 133.401C245.083 124.487 300.853 100.768 365.576 89.7701C484.55 69.5509 600.036 125.875 706.739 145.606C763.878 156.171 804.049 131.393 850.416 117.159C878.126 108.656 902.918 106.188 933.246 111.882C966.802 118.157 998.459 127.071 1029.82 136.061C1085.15 151.92 1148.35 173.258 1213.41 169.731C1294.74 165.315 1356.79 127.795 1439.25 124.663M0.32959 119.556C60.4362 120.916 120.243 137.806 180.46 129.687C244.613 121.042 298.075 97.3235 360.859 86.5831C421.765 76.1608 486.558 87.927 543.447 100.499C598.308 112.628 650.46 128.535 706.14 139.534C762.559 150.68 798.543 127.071 844.56 113.204C905.666 94.8002 968.251 118.141 1024.18 133.275C1080.85 148.59 1145.83 168.655 1211.33 165.052C1293.38 160.543 1356.1 122.759 1439.29 119.55M0.349426 114.564C61.0156 116.083 120.832 134.141 181.818 125.963C244.263 117.581 295.596 93.8786 356.692 83.3741C417.038 72.9848 483.541 84.2682 540.699 95.7821C596.669 107.06 649.94 121.953 705.61 133.67C761.28 145.386 793.796 122.935 839.224 109.265C898.94 91.3005 964.133 116.396 1019.09 130.466C1076.95 145.277 1143.58 164.125 1209.44 160.471C1292.13 155.88 1355.47 117.844 1439.27 114.564M0.369507 109.699C61.6053 111.344 121.372 130.411 183.068 122.183C244.024 114.059 293.468 90.368 352.945 80.0664C412.832 69.7265 480.852 80.5491 538.271 91.1085C595.23 101.591 649.571 115.59 705.15 128.025C731.372 133.889 750.588 134.13 775.939 126.566C796.545 120.417 813.972 111.487 834.547 105.294C861.997 97.0218 883.861 97.2522 912.611 103.401C947.156 110.801 980.811 119.309 1014.71 127.575C1073.53 141.881 1141.62 159.632 1207.77 155.946C1291.03 151.305 1354.9 113.017 1439.3 109.699M0.389404 104.948C62.1948 106.594 121.782 126.572 184.197 118.316C243.944 110.412 291.699 86.6324 349.977 76.5942C409.554 66.331 478.824 76.7039 536.472 86.4679C594.121 96.2319 649.471 109.507 704.871 122.671C730.472 128.755 749.189 129.616 774.32 122.09C794.246 116.122 810.874 107.312 830.75 101.3C858.05 93.0394 879.574 93.917 907.824 100.269C942.539 108.075 976.714 116.566 1011.25 124.602C1070.82 138.458 1140.23 155.222 1206.48 151.525C1290.2 146.857 1354.5 108.338 1439.31 104.998M0.410441 100.33C62.7954 101.932 122.043 122.601 185.157 114.323C244.014 106.594 290.281 82.634 347.75 72.892C407.247 62.7934 477.266 72.6945 535.274 81.7619C593.752 90.895 649.582 103.616 704.752 117.505C729.834 123.813 748.34 125.14 773.282 117.614C792.668 111.772 808.627 103.018 827.953 97.121C855.123 88.8325 876.628 90.1764 904.448 96.7699C939.212 104.998 973.787 113.511 1008.85 121.377C1068.81 134.833 1139.38 150.73 1205.58 147.06C1289.63 142.397 1354.24 103.66 1439.41 100.33M0.429382 95.8259C63.3839 97.2796 122.122 118.448 185.935 110.148C244.183 102.573 289.451 78.5086 346.23 68.8817C405.537 58.8325 476.476 68.5197 534.634 77.022C593.711 85.6615 649.79 98.0366 704.701 112.677C729.373 119.26 747.98 120.85 772.792 113.275C791.778 107.477 807.237 98.7168 826.193 92.8638C853.264 84.5041 875.068 86.0839 902.558 92.979C937.253 101.679 972.088 110.253 1007.54 117.987C1067.68 131.103 1139.07 146.286 1205 142.671C1289.25 138.058 1354.02 99.1117 1439.39 95.8259M0.459473 91.4376C63.7338 92.7432 122.062 114.142 186.265 105.765C244.313 98.1957 289.311 74.1532 345.91 64.5812C405.157 54.5649 476.416 64.4495 534.594 72.7709C593.881 81.2513 649.781 93.5331 704.761 108.239C729.343 114.822 748.209 116.193 772.852 108.667C791.708 102.908 807.067 94.2242 825.923 88.4481C852.904 80.1871 875.108 81.723 902.338 88.8156C936.883 97.8117 971.758 106.451 1007.36 114.109C1067.21 126.983 1139.53 141.996 1204.95 138.244C1289.08 133.428 1354.27 95.1403 1439.42 91.4541M0.479248 87.1206C63.8935 88.3603 122.051 109.901 186.405 101.427C244.363 93.7909 289.59 69.9514 346.23 60.4397C405.477 50.4892 476.575 60.8072 534.664 69.1834C593.761 77.7077 649.421 89.9675 704.781 103.977C757.183 117.235 783.154 96.8462 826.313 84.1311C853.293 76.1828 875.637 77.6309 902.618 84.7509C937.013 93.8293 971.828 102.447 1007.42 110.017C1066.92 122.666 1140.18 137.751 1205.13 133.681C1288.9 128.426 1354.89 91.6954 1439.47 87.2029M0.500347 82.8697C64.1044 84.0655 122.123 105.766 186.676 97.2195C244.634 89.5399 290.041 65.9527 346.71 56.5288C405.958 46.6551 476.846 57.3681 534.844 65.7717C593.712 74.3015 649.162 86.5065 704.842 99.8086C756.804 112.227 783.705 92.2003 826.894 80.0612C853.874 72.4584 876.418 73.8627 903.159 80.9937C937.394 90.1214 972.109 98.6731 1007.69 106.111C1066.95 118.503 1140.94 133.429 1205.35 129.084C1288.7 123.467 1355.5 88.3331 1439.46 83.1275M0.519287 78.6951C64.3432 79.858 122.271 101.734 187.065 93.1491C244.953 85.4805 290.63 62.1621 347.339 52.8369C406.586 43.1278 477.245 54.1096 535.133 62.5187C593.721 71.021 649.051 83.1328 704.931 95.6998C756.523 107.29 784.343 87.7076 827.642 76.1334C854.692 68.9091 877.406 70.3134 903.947 77.4389C937.992 86.5831 972.637 95.0361 1008.16 102.299C1067.27 114.394 1141.71 128.952 1205.68 124.383C1288.62 118.464 1356.19 84.9813 1439.51 79.1339M0.539185 74.592C64.6329 75.7439 122.451 97.7897 187.574 89.1996C245.412 81.5749 291.369 58.5198 348.128 49.3811C407.355 39.8421 477.655 51.0706 535.523 59.4523C593.791 67.8998 648.951 79.8854 705.06 91.6954C756.263 102.474 785.063 83.407 828.561 72.4582C855.702 65.6234 878.595 67.077 904.966 74.1806C938.745 83.3712 973.408 91.5491 1008.8 98.6784C1067.86 110.439 1142.5 124.46 1206.11 119.682C1288.51 113.522 1356.91 81.7285 1439.5 75.327M0.569275 70.5657C64.9528 71.7177 122.751 93.9555 188.194 85.3763C245.982 77.8119 292.249 55.064 349.078 46.1119C408.285 36.7867 478.284 48.1908 536.043 56.5341C594.001 64.8938 649.011 76.7149 705.25 87.757C756.074 97.7404 785.912 79.2381 829.671 68.953C856.941 62.5406 880.004 64.0765 906.225 71.1472C939.801 80.2769 974.338 88.3016 1009.65 95.1787C1068.74 106.572 1143.37 119.83 1206.64 114.926C1288.51 108.579 1357.69 78.525 1439.56 71.6244M0.590254 66.6275C65.3035 67.785 123.092 90.2147 188.904 81.7014C246.653 74.2303 293.249 51.8115 350.098 43.0733C409.275 33.9785 478.905 45.5197 536.613 53.7917C594.142 62.0198 649.132 73.6543 705.431 83.912C755.895 93.111 786.832 75.2396 830.891 65.6511C858.311 59.683 881.554 61.3341 907.665 68.3938C941.011 77.4363 975.392 85.2804 1010.59 91.8768C1069.78 102.848 1144.18 115.223 1207.18 110.203C1288.48 103.731 1358.41 75.448 1439.54 68.125M0.609131 62.7655C65.6821 63.9504 123.52 86.5941 189.713 78.1246C247.421 70.7852 294.357 48.7229 351.266 40.2206C410.403 31.3891 479.653 43.0126 537.232 51.1913C594.36 59.3097 649.291 70.6809 705.61 80.1487C755.724 88.5688 787.821 71.3721 832.209 62.5187C859.799 57.0333 883.222 58.8105 909.253 65.8099C942.378 74.7451 976.616 82.3798 1011.71 88.6566C1071.09 99.205 1145.07 110.532 1207.84 105.425C1288.55 98.8429 1359.2 72.3979 1439.57 64.6964M0.629028 58.9916C66.0918 60.2093 123.92 83.0724 190.602 74.7182C248.27 67.4884 295.576 45.7992 352.545 37.5601C411.632 29.0194 480.453 40.6813 537.951 48.7558C594.68 56.7261 649.56 67.8121 705.83 76.479C755.604 84.1585 788.93 67.664 833.667 59.573C861.447 54.5539 885.05 56.5231 911.022 63.4128C943.916 72.2125 977.991 79.6139 1012.95 85.5518C1072.55 95.6175 1145.94 105.776 1208.53 100.609C1288.64 94.0267 1359.96 69.3973 1439.57 61.3777M0.64917 55.3109C66.5216 56.5725 124.41 79.655 191.511 71.416C249.21 64.3563 296.885 43.04 353.924 35.0862C412.951 26.8581 481.292 38.5146 538.791 46.4684C595.1 54.2686 649.94 65.0365 706.15 72.897C755.584 79.8141 790.209 64.0875 835.316 56.7974C863.296 52.2774 887.069 54.4387 913.02 61.2954C945.675 69.9407 979.58 77.0834 1014.39 82.65C1074.22 92.2001 1146.87 101.108 1209.32 95.8808C1288.8 89.2599 1360.76 66.5504 1439.61 58.2565M0.670387 51.7402C66.9525 53.0402 124.911 76.3422 192.602 68.2402C250.21 61.3396 298.285 40.4403 355.384 32.7881C414.342 24.8837 482.213 36.5127 539.581 44.3075C595.481 51.9212 650.281 62.3325 706.371 69.3922C755.495 75.5797 791.489 60.6155 836.946 54.1647C865.126 50.1549 889.089 52.5191 915.05 59.3265C947.458 67.7988 981.181 74.6628 1015.82 79.8363C1076.04 88.8324 1147.79 96.3474 1210.14 91.1308C1289 84.5483 1361.53 63.7477 1439.63 55.2179M0.689026 48.2292C67.4508 49.6061 125.519 73.1329 193.69 65.1846C251.288 58.4759 299.783 37.9935 356.922 30.6595C415.829 23.1061 483.191 34.6693 540.479 42.3324C595.959 49.7542 650.72 59.7705 706.659 66.0293C755.494 71.5147 792.907 57.3569 838.704 51.7673C867.093 48.2841 891.236 50.9006 917.237 57.6147C949.399 65.8971 982.935 72.464 1017.38 77.225C1077.98 85.6286 1148.73 91.7009 1210.99 86.4789C1289.24 79.9238 1362.29 61.1089 1439.65 52.3817M0.708984 44.8338C67.9504 46.2819 126.118 70.0336 194.859 62.2608C252.407 55.7497 301.292 35.7006 358.531 28.7012C417.358 21.5044 484.2 32.9853 541.398 40.4784C596.479 47.6917 651.169 57.2856 706.929 62.7436C755.514 67.4994 794.376 54.1973 840.523 49.4415C869.112 46.4958 893.424 49.3702 919.515 56.024C951.426 64.1004 984.769 70.3501 1019.01 74.6743C1079.97 82.4416 1149.64 87.0054 1211.87 81.8053C1289.51 75.3271 1363.02 58.4979 1439.67 49.5951M0.728943 41.5425C68.44 43.0675 126.758 67.0441 196.028 59.4578C253.586 53.1551 302.881 33.5503 360.189 26.8965C418.937 20.0782 485.249 31.4439 542.408 38.7614C597.098 45.7663 651.709 54.8995 707.289 59.562C755.664 63.6157 796.005 51.1804 842.481 47.3022C871.28 44.8941 895.763 48.0427 921.954 54.5978C953.616 62.4653 986.763 68.3924 1020.79 72.2717C1082.16 79.3643 1150.64 82.3703 1212.85 77.2085C1289.8 70.8126 1363.74 56.013 1439.69 46.9621M0.748901 38.3555C68.9496 39.9627 127.417 64.1369 197.257 56.7809C254.815 50.6976 304.52 31.5372 361.898 25.2454C420.566 18.8275 486.338 30.0506 543.427 37.1816C597.748 43.9671 652.258 52.6121 707.598 56.4847C755.804 59.8583 797.613 48.306 844.39 45.3055C873.369 43.446 898.041 46.8798 924.332 53.3526C955.749 60.9963 988.695 66.5841 1022.49 70.0007C1084.25 76.3802 1151.52 77.801 1213.73 72.6776C1290.12 66.3914 1364.35 53.6378 1439.64 44.4553M0.770066 35.2837C69.4705 36.9732 128.108 61.3942 198.507 54.2302C256.056 48.3663 306.199 29.6666 363.648 23.7644C422.216 17.7304 487.439 28.8274 544.517 35.7609C598.478 42.3434 652.869 50.4563 707.979 53.5446C756.095 56.2434 799.333 45.5907 846.469 43.4734C875.658 42.1624 900.43 45.8979 926.971 52.2829C958.145 59.6989 990.891 64.9399 1024.44 67.8834C1165.34 80.6588 1303.41 59.1067 1439.78 42.102M0.788818 32.3106C69.9988 34.0934 128.806 58.7283 199.785 51.7892C257.334 46.1612 307.907 27.9278 365.425 22.3711C423.893 16.7211 488.567 27.6809 545.525 34.4115C599.177 40.7691 653.408 48.3554 708.268 50.6428C756.373 52.6669 800.971 42.9632 848.457 41.7016C877.816 40.9336 902.797 44.9928 929.488 51.2846C960.306 58.5966 993.032 63.2592 1026.26 65.8373C1163.57 76.4954 1306.79 56.7096 1439.75 39.8201M0.808838 29.4582C70.5285 31.3342 129.516 56.183 201.074 49.4744C258.633 44.0603 309.626 26.3151 367.214 21.1314C425.582 15.8819 489.696 26.6936 546.595 33.1992C599.956 39.3155 653.997 46.3642 708.608 47.9056C756.803 49.266 802.66 40.4784 850.505 40.1108C880.034 39.8859 905.176 44.2633 932.076 50.4782C962.694 57.5489 995.201 61.811 1028.15 63.9284C1090.91 67.9602 1154.56 64.5263 1216.8 59.5949C1291.49 53.6762 1366.28 47.1815 1439.77 37.6534M0.828857 26.721C70.4586 28.6573 129.366 53.55 200.854 47.4174C258.183 42.4805 309.276 25.4264 366.415 20.2537C424.173 15.0261 486.998 25.399 543.397 31.6633C597.918 37.6973 653.148 44.4388 708.957 45.2836C758.502 46.0351 806.777 37.7302 856.211 38.7011C886.05 39.288 910.922 44.6418 938.272 50.5879C966.681 56.7645 996.68 60.3026 1027.02 61.9756C1091.59 65.5356 1155.63 60.2861 1219.44 55.3328C1293.09 49.617 1367.39 45.2177 1439.82 35.6622M0.838806 24.1045C70.9482 26.1341 130.095 51.2352 202.113 45.3384C259.452 40.6429 310.955 24.0386 368.184 19.2444C425.822 14.4392 488.147 24.664 544.466 30.7253C598.727 36.5728 653.747 42.7932 709.267 42.7932C759.101 42.7932 808.446 35.5909 858.29 37.4285C888.168 38.5256 913.25 44.1865 940.81 50.0065C969.03 55.9636 998.828 59.1287 1028.91 60.3794C1093.69 63.0727 1156.62 56.1446 1220.42 51.3285C1293.59 45.8047 1367.88 43.4514 1439.8 33.7752M0.859972 21.6136C71.499 23.7365 130.766 49.0406 203.394 43.3742C260.752 38.8981 312.655 22.7601 369.963 18.3388C427.482 13.8902 489.317 24.0437 545.607 29.9075C599.568 35.541 654.378 41.202 709.608 40.4011C759.802 39.6715 810.116 33.5498 860.379 36.2432C890.298 37.8504 915.579 43.813 943.319 49.5068C971.299 55.25 1000.96 58.0421 1030.76 58.8704C1095.71 60.6861 1157.6 52.1124 1221.38 47.4279C1294.09 42.0851 1368.27 41.7889 1439.77 31.992M0.878784 19.2499C72.0074 21.4441 131.524 46.9621 204.662 41.5316C262.03 37.2694 314.332 21.5702 371.731 17.5439C429.13 13.5177 490.465 23.534 546.605 29.1949C600.436 34.6255 654.986 39.7543 709.917 38.1471C760.55 36.666 811.723 31.6414 862.407 35.1795C892.385 37.2694 917.847 43.5557 945.846 49.1179C973.846 54.68 1003.12 57.0717 1032.64 57.4886C1097.6 58.4156 1158.67 48.2347 1222.38 43.6818C1294.66 38.5146 1368.79 40.2699 1439.81 30.3304M0.888672 17.0119C72.5069 19.3157 132.234 44.9874 205.891 39.8091C263.289 35.7554 315.971 20.5335 373.45 16.8473C430.688 13.1776 491.644 23.1281 547.684 28.597C601.355 33.8301 655.606 38.4213 710.266 36.0242C761.399 33.7807 813.332 29.8477 864.465 34.214C894.353 36.7702 920.115 43.3856 948.314 48.8216C975.994 54.1534 1005.27 56.205 1034.47 56.2214C1099.43 56.2653 1159.72 44.5266 1223.34 40.0944C1295.28 35.0807 1369.23 38.8821 1439.81 28.7835M0.898743 14.911C72.9967 17.2916 132.903 43.1772 207.09 38.1964C264.518 34.3567 317.58 19.5461 375.128 16.2549C432.307 12.9636 492.654 22.8373 548.703 28.1143C602.264 33.1389 656.245 37.2146 710.586 34.0385C762.269 31.0215 814.871 28.1801 866.474 33.3583C896.352 36.3479 922.333 43.2978 950.743 48.6077C978.293 53.753 1007.32 55.437 1036.25 55.064C1101.1 54.2357 1160.77 40.994 1224.3 36.666C1295.83 31.795 1369.59 37.6424 1439.84 27.3408M0.918701 12.9417C73.4663 15.4046 133.583 41.4657 208.259 36.7044C265.717 33.0347 319.179 18.7014 376.757 15.7228C433.816 12.7716 493.673 22.6289 549.692 27.7084C603.154 32.541 656.865 36.1065 710.896 32.168C763.158 28.3611 816.41 26.5948 868.372 32.5684C898.221 35.9968 924.422 43.2759 953.081 48.4761C980.461 53.4129 1009.34 54.7733 1038.02 54.0218C1102.7 52.3378 1161.86 37.6589 1225.27 33.4241C1296.47 28.6683 1370.01 36.5453 1439.92 26.0408M0.930334 11.1094C73.8776 13.6491 134.214 39.8967 209.37 35.3274C266.858 31.8277 320.619 17.9277 378.328 15.2783C435.287 12.6672 494.704 22.508 550.633 27.412C604.025 32.102 657.466 35.1299 711.177 30.4454C764.049 25.8376 817.78 25.1245 870.193 31.8716C899.981 35.7113 926.432 43.3196 955.281 48.3991C982.521 53.1933 1011.24 54.1861 1039.62 53.0781C1104.07 50.5603 1162.82 34.5265 1226.12 30.3466C1297.06 25.6786 1370.3 35.5742 1439.9 24.8174M0.940106 9.42578C74.3471 12.0259 134.843 38.449 210.419 34.0607C267.957 30.7256 322.048 17.237 379.816 14.9112C436.685 12.6238 495.643 22.4646 551.522 27.2149C604.864 31.7513 658.046 34.2746 711.457 28.8605C764.868 23.4464 819.129 23.7646 871.951 31.2576C901.67 35.4759 928.38 43.3255 957.389 48.383C984.37 53.095 1013.13 53.6874 1041.16 52.2228C1105.35 48.9316 1163.77 31.6032 1226.93 27.4782C1297.57 22.865 1370.6 34.7628 1439.9 23.7152M0.998657 7.85673C74.8054 10.5117 135.432 37.1103 211.457 32.8921C268.975 29.716 323.386 16.6334 381.224 14.6093C437.963 12.6235 496.541 22.4972 552.36 27.1105C605.672 31.4988 658.604 33.5448 711.705 27.4176C765.806 21.1807 820.387 22.4808 873.588 30.7089C903.247 35.2837 930.188 43.4295 959.367 48.4157C986.237 53.007 1014.85 53.2703 1042.59 51.5095C1072.85 49.5841 1102.36 45.1738 1131.42 40.2809C1162.78 35.0094 1195.05 26.9678 1227.71 24.8395C1298.11 20.2482 1370.89 34.1208 1439.91 22.7441M0.998657 6.48539C75.1651 9.18421 135.901 35.9529 212.366 31.8773C269.934 28.8055 324.635 16.0848 382.543 14.3624C439.192 12.6565 497.35 22.5905 553.12 27.0885C606.431 31.3781 659.153 32.9414 711.945 26.1231C766.636 19.0579 821.576 21.3014 875.167 30.2426C904.696 35.1795 931.866 43.5721 961.195 48.487C987.956 52.9686 1016.44 52.9357 1043.91 50.8732C1074.11 48.6132 1103.45 43.819 1132.34 38.6133C1163.47 33.0073 1195.79 24.5488 1228.44 22.404C1298.62 17.8018 1371.17 33.6216 1439.92 21.8555M0.998657 5.24021C75.5048 7.98291 136.401 34.9107 213.195 30.9557C270.804 27.9826 325.764 15.646 383.722 14.1704C440.291 12.7278 498.06 22.777 553.789 27.1598C607.111 31.3452 659.643 32.4697 712.125 24.9657C767.445 17.0832 822.635 20.2098 876.606 29.8367C906.025 35.0807 933.395 43.7312 962.874 48.5913C989.525 52.9796 1017.83 52.6724 1045.1 50.3411C1075.24 47.763 1104.43 42.6067 1133.17 37.1158C1164.09 31.208 1196.45 22.3766 1229.1 20.1989C1299.05 15.5363 1371.43 33.2815 1439.95 21.093M0.998657 4.14861C75.8146 6.8913 136.811 34.0056 213.935 30.1439C271.613 27.2531 326.853 15.2565 384.871 14.0223C441.381 12.8155 498.789 23.0129 554.459 27.3079C607.8 31.4165 660.183 32.1241 712.345 23.9783C768.234 15.251 823.565 19.2005 877.915 29.4637C907.234 35.0094 934.784 43.8848 964.383 48.701C990.944 53.018 1019.15 52.4694 1046.16 49.8913C1076.26 47.0169 1105.29 41.5315 1133.9 35.7774C1164.65 29.5844 1197.02 20.4512 1229.72 18.2241C1299.53 13.4628 1371.73 33.0895 1439.95 20.4183M0.998657 3.2161C76.1044 5.95879 137.16 33.2431 214.584 29.4417C272.273 26.6113 327.763 14.9329 385.831 13.8907C442.28 12.8978 499.309 23.2762 554.979 27.5109C608.35 31.5701 660.632 31.8992 712.495 23.1226C768.964 13.5615 824.324 18.257 879.075 29.1565C908.264 34.971 935.973 44.0493 965.682 48.8326C992.163 53.1002 1020.23 52.3433 1047.05 49.5457C1077.11 46.4026 1106.01 40.621 1134.5 34.6254C1165.11 28.1801 1197.45 18.8111 1230.24 16.5237C1299.9 11.6142 1372.01 33.0895 1439.96 19.8588M0.998657 2.43717C75.7347 5.17987 136.591 32.4642 213.565 28.9261C274.391 26.1341 333.189 13.5232 394.564 13.781C447.036 14.0004 499.688 23.4627 551.521 27.5328C606.591 31.8553 659.303 31.7347 712.635 22.4808C771.772 12.2451 827.182 17.6262 884.181 29.7983C909.732 35.2508 934.075 42.689 959.816 47.7959C987.056 53.199 1016.96 52.6724 1044.99 49.6719C1076.8 46.2709 1107.25 39.7982 1137.25 33.2157C1167.49 26.5564 1199.63 17.1819 1232.24 14.9878C1301.19 10.3745 1372.9 33.1499 1439.95 19.4145M0.998657 1.82281C75.9445 4.5271 136.801 31.9925 213.985 28.4489C274.831 25.6513 333.898 13.3366 395.254 13.748C447.686 14.1046 500.068 23.8302 551.871 27.9058C606.981 32.2393 659.683 31.8114 712.755 21.9542C772.492 10.8518 827.612 16.8637 885.08 29.6337C910.512 35.2837 934.924 42.7877 960.736 47.9001C987.916 53.3087 1017.69 52.6724 1045.56 49.5018C1077.35 45.887 1107.68 39.1344 1137.59 32.3764C1167.79 25.5526 1199.92 16.0739 1232.61 13.77C1301.43 8.95382 1373.22 33.4351 1439.96 19.036M0.998657 1.38398C76.0944 4.04439 136.901 31.6743 214.305 28.0759C275.161 25.2454 334.358 13.194 395.794 13.7371C448.206 14.1978 500.338 24.2361 552.121 28.3447C607.261 32.733 660.043 32.0363 712.775 21.5867C773.091 9.63949 827.772 16.1561 885.73 29.4637C911.101 35.2837 935.574 42.8645 961.405 48.0372C988.565 53.4732 1018.08 52.7876 1045.93 49.4689C1110.28 41.7894 1167.93 17.7469 1232.89 12.8978C1301.59 7.76897 1373.57 33.9014 1439.96 18.7782M0.998657 1.10494C76.2143 3.71051 137 31.505 214.494 27.8188C275.361 24.917 334.758 13.1015 396.163 13.7323C448.585 14.2809 500.488 24.6702 552.251 28.8501C607.411 33.3042 660.372 32.4046 712.805 21.3899C773.651 8.60347 827.722 15.4986 886.229 29.3437C911.391 35.2844 935.923 43.156 961.815 48.1257C989.315 53.3972 1017.94 52.9693 1046.09 49.5025C1110.55 41.5597 1167.88 17.4953 1233.07 12.2951C1301.68 6.80975 1373.97 34.5384 1439.92 18.6143M0.998636 1C76.2942 3.52877 136.97 31.4878 214.544 27.6645C275.41 24.664 334.887 13.0459 396.413 13.7261C448.845 14.3076 500.548 25.1357 552.3 29.4143C607.461 33.9727 660.702 32.925 712.824 21.3563C774.14 7.73606 827.452 14.878 886.519 29.2498C940.48 42.3708 984.938 57.3075 1046.04 49.617C1110.67 41.4822 1167.73 17.6207 1233.15 12.0037C1301.68 6.11787 1374.35 35.344 1440 18.5862" stroke="url(#paint0_linear_6_4101)" stroke-miterlimit="10"/>
    <defs>
        <linearGradient id="paint0_linear_6_4101" x1="1.03743e+06" y1="5157.48" x2="1.03743e+06" y2="1393.2" gradientUnits="userSpaceOnUse">
            <stop stop-color="white" stop-opacity="0"/>
            <stop offset="1" stop-color="#FFFBC2" stop-opacity="0.12"/>
        </linearGradient>
    </defs>
</svg>
