<svg width="216" height="47" viewBox="0 0 216 47" fill="none" xmlns="http://www.w3.org/2000/svg">
    <rect width="216" height="47" rx="10" fill="white"/>
    <path d="M63.7362 23.8222C63.7015 20.0634 66.8928 18.2348 67.0387 18.1497C65.2314 15.5805 62.4301 15.2294 61.4456 15.2015C59.0929 14.96 56.8106 16.5741 55.6121 16.5741C54.3897 16.5741 52.544 15.2248 50.5549 15.2644C47.9952 15.3029 45.6005 16.7479 44.2872 18.9917C41.5767 23.5668 43.5982 30.2901 46.195 33.9882C47.494 35.7993 49.0119 37.8216 50.9986 37.7504C52.9423 37.6723 53.6684 36.5422 56.014 36.5422C58.3381 36.5422 59.0199 37.7504 61.0461 37.705C63.1322 37.6723 64.4455 35.8856 65.6991 34.0582C67.2002 31.9823 67.8031 29.9379 67.827 29.8329C67.778 29.8166 63.7757 28.3273 63.7362 23.8222Z" fill="#282828"/>
    <path d="M59.9086 12.7687C60.954 11.494 61.6693 9.75984 61.4708 8C59.9577 8.06531 58.0654 9.02045 56.9757 10.2671C56.0116 11.3657 55.1504 13.1664 55.3729 14.8597C57.0726 14.9834 58.8177 14.0236 59.9086 12.7687Z" fill="#282828"/>
    <path d="M91.8643 36.4889H89.1479L87.6599 31.9301H82.4878L81.0704 36.4889H78.4258L83.55 20.9688H86.715L91.8643 36.4889ZM87.2114 30.0175L85.8657 25.9649C85.7234 25.5509 85.4566 24.5759 85.0631 23.0411H85.0153C84.8586 23.7012 84.6062 24.6762 84.2593 25.9649L82.9376 30.0175H87.2114V30.0175Z" fill="#282828"/>
    <path d="M105.042 30.756C105.042 32.6593 104.515 34.1638 103.46 35.2682C102.515 36.2513 101.341 36.7423 99.9407 36.7423C98.4288 36.7423 97.3427 36.2128 96.6813 35.1539H96.6334V41.0492H94.0833V28.9822C94.0833 27.7857 94.051 26.5576 93.9888 25.2981H96.2315L96.3739 27.0719H96.4217C97.2721 25.7354 98.5628 25.0684 100.295 25.0684C101.649 25.0684 102.779 25.5897 103.683 26.6334C104.59 27.6784 105.042 29.0522 105.042 30.756ZM102.444 30.847C102.444 29.7578 102.193 28.8598 101.688 28.153C101.137 27.416 100.396 27.0474 99.4682 27.0474C98.8391 27.0474 98.2673 27.2527 97.7566 27.6574C97.2446 28.0656 96.9097 28.5985 96.753 29.2586C96.6741 29.5665 96.6346 29.8184 96.6346 30.0167V31.8826C96.6346 32.6967 96.8906 33.3836 97.4025 33.9445C97.9145 34.5055 98.5795 34.7854 99.3977 34.7854C100.358 34.7854 101.106 34.4238 101.64 33.7031C102.176 32.9812 102.444 32.0296 102.444 30.847Z" fill="#282828"/>
    <path d="M118.244 30.756C118.244 32.6593 117.716 34.1638 116.66 35.2682C115.716 36.2513 114.543 36.7423 113.142 36.7423C111.63 36.7423 110.544 36.2128 109.884 35.1539H109.836V41.0492H107.286V28.9822C107.286 27.7857 107.254 26.5576 107.192 25.2981H109.434L109.577 27.0719H109.625C110.474 25.7354 111.764 25.0684 113.498 25.0684C114.85 25.0684 115.981 25.5897 116.887 26.6334C117.791 27.6784 118.244 29.0522 118.244 30.756ZM115.646 30.847C115.646 29.7578 115.394 28.8598 114.889 28.153C114.337 27.416 113.599 27.0474 112.67 27.0474C112.04 27.0474 111.469 27.2527 110.957 27.6574C110.445 28.0656 110.111 28.5985 109.955 29.2586C109.877 29.5665 109.836 29.8184 109.836 30.0167V31.8826C109.836 32.6967 110.092 33.3836 110.602 33.9445C111.114 34.5043 111.779 34.7854 112.599 34.7854C113.56 34.7854 114.307 34.4238 114.842 33.7031C115.378 32.9812 115.646 32.0296 115.646 30.847Z" fill="#282828"/>
    <path d="M133.004 32.1374C133.004 33.4576 132.534 34.5317 131.59 35.3608C130.553 36.267 129.109 36.7195 127.254 36.7195C125.541 36.7195 124.168 36.3976 123.129 35.7527L123.72 33.6803C124.839 34.3404 126.068 34.6716 127.406 34.6716C128.367 34.6716 129.114 34.4594 129.651 34.0372C130.186 33.615 130.453 33.0482 130.453 32.3415C130.453 31.7117 130.232 31.1811 129.791 30.7507C129.352 30.3204 128.619 29.9204 127.595 29.5507C124.808 28.5373 123.416 27.0526 123.416 25.1004C123.416 23.8245 123.904 22.7784 124.881 21.9644C125.855 21.1492 127.154 20.7422 128.778 20.7422C130.226 20.7422 131.43 20.9883 132.39 21.4792L131.753 23.5061C130.856 23.0303 129.841 22.7924 128.706 22.7924C127.809 22.7924 127.108 23.0082 126.606 23.4373C126.181 23.821 125.968 24.2887 125.968 24.8426C125.968 25.4561 126.211 25.9634 126.699 26.3622C127.124 26.7308 127.895 27.1296 129.015 27.56C130.384 28.0976 131.39 28.7262 132.037 29.4469C132.682 30.1653 133.004 31.0645 133.004 32.1374Z" fill="#282828"/>
    <path d="M141.435 27.1642H138.625V32.5976C138.625 33.9796 139.12 34.67 140.113 34.67C140.568 34.67 140.946 34.6315 141.245 34.5546L141.316 36.4427C140.814 36.6258 140.152 36.7179 139.333 36.7179C138.326 36.7179 137.539 36.4182 136.97 35.8199C136.405 35.2205 136.12 34.2152 136.12 32.8029V27.1618H134.445V25.2959H136.12V23.2468L138.625 22.5098V25.2959H141.435V27.1642Z" fill="#282828"/>
    <path d="M154.118 30.8023C154.118 32.5225 153.613 33.9348 152.606 35.0392C151.55 36.1763 150.148 36.7431 148.401 36.7431C146.717 36.7431 145.376 36.1984 144.376 35.1092C143.376 34.0199 142.876 32.645 142.876 30.9877C142.876 29.2536 143.39 27.8331 144.422 26.7287C145.452 25.6231 146.842 25.0703 148.59 25.0703C150.274 25.0703 151.629 25.6149 152.652 26.7054C153.63 27.7631 154.118 29.1288 154.118 30.8023ZM151.472 30.8828C151.472 29.8507 151.246 28.9655 150.788 28.2273C150.253 27.334 149.489 26.8885 148.499 26.8885C147.474 26.8885 146.695 27.3351 146.16 28.2273C145.702 28.9667 145.476 29.8658 145.476 30.9294C145.476 31.9615 145.702 32.8467 146.16 33.5838C146.712 34.4771 147.482 34.9226 148.476 34.9226C149.45 34.9226 150.214 34.4678 150.765 33.5604C151.235 32.8082 151.472 31.9137 151.472 30.8828Z" fill="#282828"/>
    <path d="M162.407 27.4848C162.155 27.4393 161.886 27.416 161.604 27.416C160.707 27.416 160.013 27.746 159.525 28.4073C159.1 28.9904 158.887 29.7274 158.887 30.6173V36.4892H156.338L156.362 28.8224C156.362 27.5326 156.33 26.3582 156.266 25.2993H158.488L158.581 27.4405H158.652C158.921 26.7046 159.345 26.1121 159.927 25.6678C160.495 25.2678 161.108 25.0684 161.77 25.0684C162.006 25.0684 162.218 25.0847 162.407 25.1138V27.4848Z" fill="#282828"/>
    <path d="M173.813 30.3657C173.813 30.8112 173.783 31.1867 173.719 31.4934H166.069C166.099 32.599 166.468 33.4445 167.179 34.0276C167.824 34.5489 168.657 34.8101 169.681 34.8101C170.814 34.8101 171.847 34.634 172.777 34.2807L173.176 36.0067C172.09 36.4685 170.808 36.6983 169.328 36.6983C167.548 36.6983 166.151 36.1875 165.135 35.167C164.12 34.1466 163.612 32.7762 163.612 31.0572C163.612 29.3697 164.084 27.9644 165.031 26.8437C166.021 25.6471 167.359 25.0488 169.044 25.0488C170.698 25.0488 171.95 25.6471 172.801 26.8437C173.474 27.7941 173.813 28.9697 173.813 30.3657ZM171.381 29.7207C171.398 28.9837 171.231 28.3469 170.886 27.8093C170.444 27.1177 169.766 26.7725 168.853 26.7725C168.02 26.7725 167.341 27.1096 166.824 27.786C166.399 28.3236 166.147 28.9685 166.069 29.7196H171.381V29.7207Z" fill="#282828"/>
    <path d="M86.3695 11.4212C86.3695 12.7938 85.9472 13.8271 85.104 14.521C84.3229 15.1613 83.2129 15.482 81.7751 15.482C81.0622 15.482 80.4522 15.4517 79.9415 15.391V7.89103C80.6077 7.78607 81.3254 7.73242 82.1005 7.73242C83.4701 7.73242 84.5023 8.02281 85.1985 8.60359C85.9783 9.26018 86.3695 10.199 86.3695 11.4212ZM85.0478 11.455C85.0478 10.5652 84.8061 9.88294 84.3229 9.40712C83.8397 8.93247 83.1339 8.69456 82.2046 8.69456C81.8098 8.69456 81.4737 8.72022 81.195 8.77386V14.4755C81.3493 14.4989 81.6316 14.5094 82.0419 14.5094C83.0012 14.5094 83.7416 14.2493 84.2631 13.7292C84.7846 13.209 85.0478 12.451 85.0478 11.455Z" fill="#282828"/>
    <path d="M93.3775 12.62C93.3775 13.4655 93.1299 14.1582 92.6347 14.7017C92.1156 15.2603 91.4278 15.539 90.569 15.539C89.7413 15.539 89.0822 15.272 88.5906 14.7355C88.1002 14.2002 87.855 13.525 87.855 12.7109C87.855 11.8596 88.1074 11.161 88.6145 10.6187C89.1217 10.0764 89.8035 9.80469 90.6623 9.80469C91.49 9.80469 92.1551 10.0718 92.6586 10.6071C93.1371 11.1272 93.3775 11.7989 93.3775 12.62ZM92.0773 12.6596C92.0773 12.1523 91.9649 11.7173 91.7412 11.3546C91.4781 10.9161 91.1037 10.6969 90.6168 10.6969C90.1133 10.6969 89.7305 10.9161 89.4674 11.3546C89.2425 11.7173 89.1313 12.1593 89.1313 12.6818C89.1313 13.1891 89.2437 13.6241 89.4674 13.9868C89.7389 14.4253 90.1169 14.6445 90.6049 14.6445C91.0833 14.6445 91.4589 14.4218 91.7292 13.9751C91.9613 13.6054 92.0773 13.1669 92.0773 12.6596Z" fill="#282828"/>
    <path d="M102.774 9.91797L101.01 15.4156H99.8617L99.1309 13.0283C98.9455 12.4324 98.7948 11.8399 98.6776 11.2521H98.6548C98.546 11.8562 98.3953 12.4475 98.2015 13.0283L97.4252 15.4156H96.2638L94.6047 9.91797H95.893L96.5305 12.5315C96.6848 13.1496 96.8116 13.7385 96.9133 14.296H96.936C97.0293 13.8365 97.1836 13.251 97.4013 12.5431L98.2015 9.91914H99.223L99.9897 12.4872C100.175 13.1134 100.326 13.7164 100.442 14.2972H100.477C100.561 13.7315 100.689 13.1286 100.859 12.4872L101.543 9.91914H102.774V9.91797Z" fill="#282828"/>
    <path d="M109.273 15.4138H108.019V12.265C108.019 11.2947 107.641 10.8096 106.883 10.8096C106.511 10.8096 106.211 10.9425 105.978 11.2096C105.747 11.4767 105.629 11.7915 105.629 12.1519V15.4127H104.376V11.4871C104.376 11.0043 104.36 10.4807 104.33 9.91391H105.432L105.491 10.7734H105.525C105.671 10.5063 105.889 10.2859 106.175 10.1098C106.515 9.90458 106.895 9.80078 107.311 9.80078C107.837 9.80078 108.275 9.96639 108.623 10.2988C109.056 10.7058 109.273 11.3134 109.273 12.1204V15.4138V15.4138Z" fill="#282828"/>
    <path d="M112.73 15.4147H111.477V7.39453H112.73V15.4147Z" fill="#282828"/>
    <path d="M120.11 12.62C120.11 13.4655 119.862 14.1582 119.367 14.7017C118.848 15.2603 118.159 15.539 117.302 15.539C116.473 15.539 115.814 15.272 115.323 14.7355C114.833 14.2002 114.588 13.525 114.588 12.7109C114.588 11.8596 114.84 11.161 115.347 10.6187C115.854 10.0764 116.536 9.80469 117.394 9.80469C118.223 9.80469 118.886 10.0718 119.391 10.6071C119.87 11.1272 120.11 11.7989 120.11 12.62ZM118.809 12.6596C118.809 12.1523 118.696 11.7173 118.473 11.3546C118.211 10.9161 117.835 10.6969 117.349 10.6969C116.845 10.6969 116.462 10.9161 116.2 11.3546C115.975 11.7173 115.864 12.1593 115.864 12.6818C115.864 13.1891 115.976 13.6241 116.2 13.9868C116.471 14.4253 116.849 14.6445 117.337 14.6445C117.816 14.6445 118.19 14.4218 118.461 13.9751C118.694 13.6054 118.809 13.1669 118.809 12.6596Z" fill="#282828"/>
    <path d="M126.177 15.4142H125.051L124.958 14.781H124.923C124.538 15.286 123.989 15.539 123.276 15.539C122.744 15.539 122.313 15.3723 121.989 15.041C121.695 14.7402 121.548 14.3658 121.548 13.9215C121.548 13.2497 121.835 12.7377 122.413 12.3832C122.989 12.0287 123.8 11.8549 124.844 11.8631V11.7604C124.844 11.0362 124.454 10.6747 123.673 10.6747C123.117 10.6747 122.627 10.8111 122.203 11.0817L121.949 10.2793C122.472 9.96329 123.12 9.80469 123.883 9.80469C125.356 9.80469 126.096 10.5627 126.096 12.0788V14.1034C126.096 14.6527 126.123 15.09 126.177 15.4142ZM124.875 13.5249V12.6771C123.493 12.6538 122.801 13.0235 122.801 13.785C122.801 14.0719 122.88 14.2865 123.042 14.4299C123.203 14.5734 123.409 14.6445 123.654 14.6445C123.929 14.6445 124.187 14.5594 124.421 14.3903C124.657 14.22 124.801 14.0043 124.855 13.7395C124.868 13.6801 124.875 13.6078 124.875 13.5249Z" fill="#282828"/>
    <path d="M133.299 15.4147H132.187L132.128 14.5318H132.094C131.738 15.2036 131.133 15.5395 130.283 15.5395C129.603 15.5395 129.038 15.2794 128.589 14.7593C128.141 14.2391 127.917 13.5639 127.917 12.7347C127.917 11.8449 128.16 11.1241 128.648 10.5737C129.12 10.0605 129.699 9.80396 130.388 9.80396C131.145 9.80396 131.675 10.0524 131.977 10.5503H132V7.39453H133.255V13.9336C133.255 14.4689 133.27 14.9622 133.299 15.4147ZM132 13.0962V12.1796C132 12.021 131.988 11.8927 131.966 11.7947C131.895 11.5008 131.743 11.2536 131.512 11.0542C131.279 10.8547 130.998 10.7544 130.674 10.7544C130.206 10.7544 129.84 10.9352 129.571 11.2979C129.304 11.6606 129.169 12.1236 129.169 12.6892C129.169 13.2327 129.297 13.6735 129.554 14.0129C129.826 14.3744 130.192 14.5552 130.65 14.5552C131.061 14.5552 131.39 14.4047 131.64 14.1027C131.882 13.8239 132 13.4881 132 13.0962Z" fill="#282828"/>
    <path d="M144.021 12.62C144.021 13.4655 143.773 14.1582 143.278 14.7017C142.759 15.2603 142.072 15.539 141.212 15.539C140.386 15.539 139.726 15.272 139.234 14.7355C138.743 14.2002 138.498 13.525 138.498 12.7109C138.498 11.8596 138.75 11.161 139.258 10.6187C139.765 10.0764 140.447 9.80469 141.307 9.80469C142.133 9.80469 142.799 10.0718 143.302 10.6071C143.78 11.1272 144.021 11.7989 144.021 12.62ZM142.722 12.6596C142.722 12.1523 142.609 11.7173 142.385 11.3546C142.121 10.9161 141.748 10.6969 141.26 10.6969C140.758 10.6969 140.375 10.9161 140.11 11.3546C139.886 11.7173 139.774 12.1593 139.774 12.6818C139.774 13.1891 139.887 13.6241 140.11 13.9868C140.382 14.4253 140.76 14.6445 141.248 14.6445C141.726 14.6445 142.103 14.4218 142.374 13.9751C142.604 13.6054 142.722 13.1669 142.722 12.6596Z" fill="#282828"/>
    <path d="M150.761 15.4138H149.508V12.265C149.508 11.2947 149.13 10.8096 148.371 10.8096C147.999 10.8096 147.699 10.9425 147.467 11.2096C147.234 11.4767 147.118 11.7915 147.118 12.1519V15.4127H145.864V11.4871C145.864 11.0043 145.849 10.4807 145.819 9.91391H146.92L146.979 10.7734H147.013C147.16 10.5063 147.378 10.2859 147.663 10.1098C148.004 9.90458 148.383 9.80078 148.8 9.80078C149.325 9.80078 149.763 9.96639 150.111 10.2988C150.545 10.7058 150.761 11.3134 150.761 12.1204V15.4138V15.4138Z" fill="#282828"/>
    <path d="M159.197 10.8315H157.817V13.5022C157.817 14.1809 158.062 14.5203 158.547 14.5203C158.772 14.5203 158.959 14.5016 159.106 14.4631L159.138 15.3903C158.891 15.4813 158.565 15.5267 158.165 15.5267C157.669 15.5267 157.284 15.3798 157.006 15.0859C156.726 14.792 156.587 14.2975 156.587 13.6036V10.8315H155.763V9.91603H156.587V8.90841L157.815 8.54688V9.91486H159.196V10.8315H159.197Z" fill="#282828"/>
    <path d="M165.833 15.4147H164.578V12.2892C164.578 11.3037 164.2 10.8104 163.443 10.8104C162.862 10.8104 162.465 11.0961 162.247 11.6676C162.21 11.7877 162.188 11.9347 162.188 12.1073V15.4135H160.936V7.39453H162.188V10.7078H162.212C162.607 10.1048 163.173 9.80396 163.906 9.80396C164.425 9.80396 164.855 9.96956 165.195 10.3019C165.62 10.7159 165.833 11.3317 165.833 12.1457V15.4147V15.4147Z" fill="#282828"/>
    <path d="M172.679 12.4061C172.679 12.6254 172.662 12.8096 172.632 12.9601H168.873C168.889 13.5035 169.069 13.9175 169.417 14.2044C169.735 14.461 170.145 14.5893 170.648 14.5893C171.204 14.5893 171.711 14.503 172.168 14.3292L172.364 15.1782C171.829 15.4045 171.2 15.5176 170.472 15.5176C169.599 15.5176 168.911 15.2669 168.413 14.7654C167.913 14.2639 167.666 13.591 167.666 12.7466C167.666 11.9175 167.897 11.227 168.362 10.6766C168.847 10.0888 169.504 9.79492 170.333 9.79492C171.144 9.79492 171.76 10.0888 172.176 10.6766C172.512 11.1431 172.679 11.7204 172.679 12.4061ZM171.482 12.0901C171.492 11.7274 171.41 11.4148 171.24 11.1512C171.022 10.8119 170.691 10.6416 170.242 10.6416C169.833 10.6416 169.499 10.8072 169.245 11.1396C169.036 11.4043 168.913 11.7204 168.873 12.0901H171.482Z" fill="#282828"/>
</svg>
