<svg width="216" height="47" viewBox="0 0 216 47" fill="none" xmlns="http://www.w3.org/2000/svg">
    <rect width="216" height="47" rx="10" fill="white"/>
    <path d="M83.6397 11.9638C83.6397 12.9376 83.3411 13.7175 82.7528 14.2992C82.0764 14.9887 81.1955 15.3357 80.116 15.3357C79.0842 15.3357 78.2033 14.9829 77.4806 14.2875C76.7565 13.582 76.3951 12.716 76.3951 11.6796C76.3951 10.6431 76.7565 9.77715 77.4806 9.07742C78.2033 8.37622 79.0842 8.02344 80.116 8.02344C80.6296 8.02344 81.1193 8.12694 81.5867 8.31937C82.0525 8.51325 82.4318 8.77565 82.7065 9.09928L82.0824 9.71447C81.6031 9.16197 80.9506 8.88936 80.116 8.88936C79.3634 8.88936 78.711 9.14593 78.157 9.66344C77.609 10.1824 77.3343 10.8545 77.3343 11.6796C77.3343 12.5047 77.609 13.1825 78.157 13.7015C78.711 14.2132 79.3634 14.4756 80.116 14.4756C80.9148 14.4756 81.5867 14.2132 82.1167 13.6957C82.4661 13.3531 82.6647 12.8808 82.717 12.2772H80.116V11.4347H83.5859C83.6278 11.6169 83.6397 11.7933 83.6397 11.9638V11.9638Z" fill="#282828" stroke="#282828" stroke-width="0.16" stroke-miterlimit="10"/>
    <path d="M89.1445 9.04223H85.885V11.2581H88.8235V12.1007H85.885V14.3165H89.1445V15.1751H84.9623V8.18359H89.1445V9.04223Z" fill="#282828" stroke="#282828" stroke-width="0.16" stroke-miterlimit="10"/>
    <path d="M93.0299 15.1751H92.1072V9.04223H90.1079V8.18359H95.0307V9.04223H93.0299V15.1751V15.1751Z" fill="#282828" stroke="#282828" stroke-width="0.16" stroke-miterlimit="10"/>
    <path d="M98.593 15.1751V8.18359H99.5143V15.1751H98.593Z" fill="#282828" stroke="#282828" stroke-width="0.16" stroke-miterlimit="10"/>
    <path d="M103.598 15.1751H102.683V9.04223H100.676V8.18359H105.605V9.04223H103.598V15.1751Z" fill="#282828" stroke="#282828" stroke-width="0.16" stroke-miterlimit="10"/>
    <path d="M114.925 14.2759C114.218 14.9829 113.343 15.3357 112.3 15.3357C111.25 15.3357 110.375 14.9829 109.669 14.2759C108.964 13.5703 108.613 12.7044 108.613 11.6796C108.613 10.6547 108.964 9.78881 109.669 9.08325C110.375 8.37622 111.25 8.02344 112.3 8.02344C113.337 8.02344 114.212 8.37622 114.919 9.08908C115.629 9.80048 115.98 10.6606 115.98 11.6796C115.98 12.7044 115.629 13.5703 114.925 14.2759ZM110.351 13.6898C110.883 14.2132 111.529 14.4756 112.3 14.4756C113.064 14.4756 113.717 14.2132 114.242 13.6898C114.772 13.1665 115.041 12.4945 115.041 11.6796C115.041 10.8647 114.772 10.1926 114.242 9.66928C113.717 9.14593 113.064 8.88353 112.3 8.88353C111.529 8.88353 110.883 9.14593 110.351 9.66928C109.821 10.1926 109.552 10.8647 109.552 11.6796C109.552 12.4945 109.821 13.1665 110.351 13.6898V13.6898Z" fill="#282828" stroke="#282828" stroke-width="0.16" stroke-miterlimit="10"/>
    <path d="M117.275 15.1751V8.18359H118.395L121.877 13.6211H121.917L121.877 12.277V8.18359H122.798V15.1751H121.836L118.19 9.46936H118.15L118.19 10.8193V15.1751H117.275V15.1751Z" fill="#282828" stroke="#282828" stroke-width="0.16" stroke-miterlimit="10"/>
    <path d="M108.386 25.386C105.581 25.386 103.289 27.4707 103.289 30.3469C103.289 33.1997 105.581 35.3062 108.386 35.3062C111.198 35.3062 113.49 33.1997 113.49 30.3469C113.49 27.4707 111.198 25.386 108.386 25.386ZM108.386 33.3528C106.847 33.3528 105.522 32.1122 105.522 30.3469C105.522 28.5582 106.847 27.3395 108.386 27.3395C109.925 27.3395 111.256 28.5582 111.256 30.3469C111.256 32.1122 109.925 33.3528 108.386 33.3528V33.3528ZM97.2639 25.386C94.4524 25.386 92.1665 27.4707 92.1665 30.3469C92.1665 33.1997 94.4524 35.3062 97.2639 35.3062C100.074 35.3062 102.361 33.1997 102.361 30.3469C102.361 27.4707 100.074 25.386 97.2639 25.386ZM97.2639 33.3528C95.723 33.3528 94.3942 32.1122 94.3942 30.3469C94.3942 28.5582 95.723 27.3395 97.2639 27.3395C98.8033 27.3395 100.128 28.5582 100.128 30.3469C100.128 32.1122 98.8033 33.3528 97.2639 33.3528ZM84.029 26.9065V29.0144H89.1847C89.0339 30.1923 88.6308 31.0583 88.0126 31.6618C87.2601 32.3907 86.088 33.1997 84.029 33.1997C80.8562 33.1997 78.3716 30.6996 78.3716 27.6019C78.3716 24.5041 80.8562 22.004 84.029 22.004C85.7446 22.004 86.9928 22.6585 87.9141 23.5069L89.4356 22.0215C88.147 20.8202 86.4329 19.8975 84.029 19.8975C79.6781 19.8975 76.0215 23.3539 76.0215 27.6019C76.0215 31.8498 79.6781 35.3062 84.029 35.3062C86.3807 35.3062 88.147 34.554 89.5356 33.1429C90.9585 31.7536 91.402 29.8002 91.402 28.2229C91.402 27.7331 91.3602 27.2826 91.2855 26.9065H84.029ZM138.148 28.5407C137.729 27.4313 136.434 25.386 133.797 25.386C131.184 25.386 129.009 27.3963 129.009 30.3469C129.009 33.1254 131.162 35.3062 134.048 35.3062C136.382 35.3062 137.729 33.917 138.283 33.1079L136.551 31.981C135.973 32.8061 135.186 33.3528 134.048 33.3528C132.918 33.3528 132.107 32.847 131.587 31.8498L138.383 29.1048L138.148 28.5407V28.5407ZM131.22 30.1923C131.162 28.2797 132.742 27.3001 133.873 27.3001C134.76 27.3001 135.513 27.7331 135.764 28.3526L131.22 30.1923V30.1923ZM125.697 35.0045H127.931V20.4266H125.697V35.0045ZM122.039 26.491H121.964C121.463 25.9108 120.506 25.386 119.293 25.386C116.749 25.386 114.423 27.5669 114.423 30.3629C114.423 33.1429 116.749 35.3062 119.293 35.3062C120.506 35.3062 121.463 34.7771 121.964 34.1794H122.039V34.8908C122.039 36.7873 121.001 37.8063 119.328 37.8063C117.963 37.8063 117.116 36.8442 116.767 36.0351L114.824 36.8267C115.384 38.1416 116.867 39.7598 119.328 39.7598C121.946 39.7598 124.156 38.2553 124.156 34.5948V25.6878H122.039V26.491V26.491ZM119.484 33.3528C117.945 33.3528 116.656 32.0947 116.656 30.3629C116.656 28.615 117.945 27.3395 119.484 27.3395C121.001 27.3395 122.197 28.615 122.197 30.3629C122.197 32.0947 121.001 33.3528 119.484 33.3528V33.3528ZM148.606 20.4266H143.264V35.0045H145.491V29.4809H148.606C151.08 29.4809 153.506 27.7331 153.506 24.9531C153.506 22.1745 151.074 20.4266 148.606 20.4266V20.4266ZM148.664 27.4532H145.491V22.4544H148.664C150.327 22.4544 151.277 23.8029 151.277 24.9531C151.277 26.0814 150.327 27.4532 148.664 27.4532ZM162.435 25.3583C160.825 25.3583 159.152 26.0522 158.463 27.5902L160.44 28.3993C160.866 27.5902 161.648 27.3278 162.475 27.3278C163.631 27.3278 164.803 28.0057 164.821 29.2025V29.3556C164.418 29.1282 163.555 28.7914 162.493 28.7914C160.364 28.7914 158.195 29.9358 158.195 32.0714C158.195 34.0248 159.939 35.2829 161.899 35.2829C163.398 35.2829 164.225 34.6225 164.745 33.8543H164.821V34.9812H166.973V29.3891C166.973 26.8044 164.996 25.3583 162.435 25.3583ZM162.166 33.347C161.438 33.347 160.422 32.9942 160.422 32.1122C160.422 30.9839 161.689 30.5509 162.784 30.5509C163.765 30.5509 164.225 30.7623 164.821 31.0408C164.646 32.3907 163.456 33.347 162.166 33.347V33.347ZM174.811 25.6776L172.251 31.9971H172.175L169.527 25.6776H167.125L171.103 34.5088L168.833 39.423H171.161L177.29 25.6776H174.811V25.6776ZM154.731 35.0045H156.964V20.4266H154.731V35.0045Z" fill="#282828"/>
    <path d="M39.4646 8.80914C39.1137 9.16776 38.9106 9.72609 38.9106 10.4491V36.2403C38.9106 36.9633 39.1137 37.5216 39.4646 37.8803L39.5512 37.959L54.3538 23.5123V23.1712L39.5512 8.72459L39.4646 8.80914Z" fill="url(#paint0_linear_6_4139)"/>
    <path d="M59.2824 28.3301L54.3536 23.5121V23.171L59.2884 18.353L59.3988 18.4157L65.2429 21.6622C66.9107 22.5835 66.9107 24.0996 65.2429 25.0267L59.3988 28.2674L59.2824 28.3301V28.3301Z" fill="url(#paint1_linear_6_4139)"/>
    <path d="M59.3988 28.267L54.3536 23.3411L39.4644 37.8796C40.0183 38.4481 40.9216 38.5166 41.9489 37.9481L59.3988 28.267" fill="url(#paint2_linear_6_4139)"/>
    <path d="M59.3988 18.4159L41.9489 8.73481C40.9216 8.1721 40.0183 8.24062 39.4644 8.80915L54.3536 23.3418L59.3988 18.4159Z" fill="url(#paint3_linear_6_4139)"/>
    <defs>
        <linearGradient id="paint0_linear_6_4139" x1="53.0396" y1="36.5088" x2="33.4731" y2="16.4683" gradientUnits="userSpaceOnUse">
            <stop stop-color="#00A0FF"/>
            <stop offset="0.0066" stop-color="#00A1FF"/>
            <stop offset="0.2601" stop-color="#00BEFF"/>
            <stop offset="0.5122" stop-color="#00D2FF"/>
            <stop offset="0.7604" stop-color="#00DFFF"/>
            <stop offset="1" stop-color="#00E3FF"/>
        </linearGradient>
        <linearGradient id="paint1_linear_6_4139" x1="67.4146" y1="23.3399" x2="38.5118" y2="23.3399" gradientUnits="userSpaceOnUse">
            <stop stop-color="#FFE000"/>
            <stop offset="0.4087" stop-color="#FFBD00"/>
            <stop offset="0.7754" stop-color="#FFA500"/>
            <stop offset="1" stop-color="#FF9C00"/>
        </linearGradient>
        <linearGradient id="paint2_linear_6_4139" x1="56.6554" y1="20.6633" x2="30.1217" y2="-6.51333" gradientUnits="userSpaceOnUse">
            <stop stop-color="#FF3A44"/>
            <stop offset="1" stop-color="#C31162"/>
        </linearGradient>
        <linearGradient id="paint3_linear_6_4139" x1="35.7164" y1="46.4609" x2="47.5649" y2="34.3254" gradientUnits="userSpaceOnUse">
            <stop stop-color="#32A071"/>
            <stop offset="0.0685" stop-color="#2DA771"/>
            <stop offset="0.4762" stop-color="#15CF74"/>
            <stop offset="0.8009" stop-color="#06E775"/>
            <stop offset="1" stop-color="#00F076"/>
        </linearGradient>
    </defs>
</svg>
