<svg width="703" height="227" viewBox="0 0 703 227" fill="none" xmlns="http://www.w3.org/2000/svg">
<g opacity="0.55" filter="url(#filter0_f_0_1)">
<path opacity="0.2" d="M16 183C23.1797 183 29 177.18 29 170C29 162.82 23.1797 157 16 157C8.8203 157 3 162.82 3 170C3 177.18 8.8203 183 16 183Z" fill="#505050"/>
<path fill-rule="evenodd" clip-rule="evenodd" d="M21.0472 167.159L20.7886 166.976L20.7884 166.976L20.7881 166.976L20.7877 166.975C20.385 166.69 19.9652 166.392 19.5529 166.097C19.5418 166.088 19.5307 166.08 19.5169 166.071C19.4614 166.029 19.3976 165.984 19.32 165.959L19.3145 165.956C18.0898 165.656 16.8467 165.348 15.6357 165.049L15.2889 164.963C14.6903 164.816 14.0924 164.668 13.4944 164.521L13.4938 164.52C12.8957 164.373 12.2975 164.225 11.6986 164.078C11.6682 164.069 11.6377 164.061 11.6044 164.052C11.4963 164.021 11.3715 163.988 11.2384 164.005C11.1996 164.01 11.1663 164.024 11.1358 164.044L11.1026 164.072C11.0499 164.123 11.0222 164.187 11.0083 164.224L11 164.246V164.376L11.0055 164.395C11.5746 166.013 12.1547 167.648 12.7257 169.257L12.7258 169.257C12.9141 169.788 13.1015 170.316 13.2872 170.84L13.8053 172.3L13.8054 172.3L13.8054 172.3L13.8058 172.301C14.2183 173.463 14.6364 174.641 15.0477 175.803C15.0838 175.916 15.1863 175.989 15.3139 176H15.3416C15.4608 176 15.5662 175.941 15.6188 175.845L17.8146 172.598C18.0821 172.203 18.3497 171.807 18.6172 171.411C18.8847 171.015 19.1523 170.619 19.4198 170.224C19.5293 170.063 19.6388 169.9 19.7484 169.738C19.8579 169.576 19.9674 169.413 20.0769 169.251L20.122 169.185C20.4683 168.671 20.8242 168.144 21.1775 167.629L21.1969 167.601V167.567C21.2053 167.469 21.208 167.266 21.0472 167.159ZM18.4744 168.343C18.282 168.445 18.0881 168.548 17.893 168.651L17.8929 168.652C17.5652 168.825 17.2344 169.001 16.9025 169.176L17.8285 168.169C18.164 167.802 18.5122 167.424 18.8565 167.05L18.8566 167.05L19.0095 166.884L19.0178 166.875C19.0511 166.83 19.0927 166.788 19.137 166.743L19.1601 166.72C19.1838 166.697 19.2083 166.672 19.2313 166.645C19.4365 166.788 19.6444 166.934 19.844 167.078C19.9882 167.182 20.1351 167.286 20.2848 167.39C19.6749 167.705 19.065 168.028 18.4744 168.343ZM15.9349 169.533C16.3424 169.091 16.7528 168.644 17.1492 168.208L17.4986 167.827C17.9091 167.38 18.3271 166.924 18.7434 166.473C17.9393 166.275 17.1345 166.077 16.3298 165.879C15.5251 165.68 14.7205 165.482 13.9166 165.284C13.631 165.211 13.3399 165.141 13.0599 165.073C12.7411 164.997 12.4167 164.918 12.0951 164.834C12.1116 164.854 12.1281 164.874 12.1445 164.894L12.1445 164.894L12.1445 164.894C12.1805 164.938 12.2161 164.981 12.2504 165.025C12.2753 165.056 12.3001 165.087 12.3251 165.118C12.3781 165.185 12.4314 165.252 12.486 165.315L12.4888 165.318L13.0225 165.969L13.5562 166.62C14.338 167.573 15.1448 168.56 15.9349 169.533ZM15.7547 173.689L15.7804 173.443L15.7804 173.443C15.8031 173.226 15.8261 173.007 15.8462 172.792L15.8711 172.551C15.8878 172.391 15.9044 172.23 15.921 172.075L15.9386 171.906C15.9721 171.585 16.0064 171.256 16.0347 170.933L16.043 170.866C16.0707 170.624 16.0985 170.373 16.1151 170.123C16.1456 170.106 16.1789 170.089 16.2149 170.075C16.2253 170.07 16.2357 170.066 16.2461 170.061C16.2773 170.047 16.3085 170.032 16.3397 170.014C16.9801 169.673 17.6205 169.333 18.2637 168.996C18.9042 168.658 19.5612 168.309 20.2127 167.964C19.6194 168.835 19.0234 169.715 18.4467 170.573L18.1215 171.054C17.7289 171.635 17.3301 172.225 16.933 172.809C16.8201 172.977 16.7046 173.147 16.5899 173.316L16.5899 173.316C16.5018 173.446 16.4141 173.576 16.3286 173.703C16.1068 174.029 15.8794 174.363 15.6577 174.698C15.6854 174.361 15.7186 174.02 15.7547 173.689ZM11.8533 165.396C11.8656 165.43 11.8779 165.464 11.8899 165.498C12.5166 167.267 13.1433 169.035 13.7699 170.802C14.0831 171.686 14.3963 172.569 14.7095 173.452L15.0061 174.288C15.045 174.403 15.0865 174.521 15.1281 174.633C15.1335 174.649 15.1392 174.664 15.145 174.68C15.1544 174.705 15.164 174.731 15.1725 174.757C15.1838 174.65 15.1946 174.543 15.2053 174.436C15.2181 174.308 15.2309 174.18 15.2446 174.054C15.2497 174.006 15.2548 173.957 15.2599 173.908C15.3134 173.397 15.3681 172.874 15.4137 172.356L15.4165 172.336C15.4165 172.336 15.4608 171.948 15.4802 171.777C15.4834 171.748 15.4867 171.72 15.49 171.692C15.5012 171.595 15.5126 171.498 15.519 171.4V171.397C15.5412 171.197 15.5606 171 15.58 170.804C15.5923 170.69 15.6041 170.575 15.616 170.46C15.6337 170.288 15.6516 170.113 15.6715 169.94C15.5957 169.855 15.5244 169.767 15.4544 169.68C15.4296 169.649 15.405 169.619 15.3804 169.589C15.3083 169.499 15.2335 169.406 15.1586 169.319C14.9054 169.008 14.6522 168.699 14.399 168.39C14.2724 168.236 14.1458 168.082 14.0192 167.927C13.2845 167.033 12.5304 166.111 11.7818 165.194C11.804 165.26 11.8286 165.328 11.8533 165.396Z" fill="white"/>
</g>
<g opacity="0.55" filter="url(#filter1_f_0_1)">
<path opacity="0.2" d="M278.489 19.2837C283.856 29.4962 279.928 42.1259 269.716 47.4929C259.503 52.8601 246.873 48.9321 241.506 38.7196C236.139 28.5073 240.067 15.8776 250.28 10.5105C260.492 5.14348 273.121 9.07135 278.489 19.2837Z" fill="#F6D43D"/>
<path d="M269.254 33.9971L267.809 32.2837C267.725 32.1825 267.62 32.1292 267.492 32.124C267.357 32.1225 267.247 32.1701 267.163 32.2662L267.114 32.3225L266.987 32.4359C266.93 32.4862 266.865 32.5441 266.79 32.6092C266.716 32.6744 266.627 32.7467 266.524 32.827C266.421 32.9069 266.31 32.9886 266.193 33.0708C266.076 33.1529 265.948 33.2388 265.808 33.3279C265.668 33.4169 265.525 33.4998 265.378 33.5767C264.346 34.119 263.272 34.3287 262.155 34.2055C261.038 34.0822 260.034 33.6478 259.145 32.9024L263.861 30.4239C263.951 30.3768 264.016 30.3037 264.057 30.2044C264.098 30.105 264.103 30.0065 264.072 29.9084L263.647 28.3898C263.608 28.2554 263.526 28.1584 263.401 28.0992C263.269 28.0443 263.141 28.0489 263.02 28.1129L257.426 31.0525C257.112 30.5129 256.888 30.0864 256.754 29.7729L262.701 26.6474C262.921 26.532 262.995 26.3583 262.924 26.1257L262.487 24.5827C262.451 24.4563 262.368 24.3655 262.235 24.3107C262.111 24.2515 261.984 24.2559 261.854 24.3243L256.15 27.3217C256.078 26.1983 256.312 25.1632 256.851 24.2162C257.39 23.2691 258.171 22.5267 259.195 21.9887C259.219 21.9554 259.341 21.8965 259.561 21.8121C259.781 21.7274 259.904 21.6757 259.93 21.6567C259.956 21.6379 260.069 21.5944 260.266 21.5267C260.464 21.4591 260.563 21.4252 260.563 21.4252L260.799 21.3558C260.866 21.336 260.918 21.3214 260.955 21.3126L261.01 21.2991C261.133 21.2763 261.225 21.2149 261.287 21.115C261.348 21.0151 261.364 20.906 261.333 20.7876L260.838 18.5745C260.807 18.4561 260.743 18.3651 260.648 18.3012C260.524 18.242 260.41 18.2239 260.308 18.2465C259.462 18.4525 258.625 18.7733 257.796 19.2088C255.976 20.1653 254.623 21.5404 253.735 23.3338C252.848 25.1273 252.58 27.0204 252.933 29.0125L251.738 29.6401C251.625 29.6999 251.55 29.7855 251.516 29.897C251.481 30.0084 251.494 30.1212 251.553 30.235L252.284 31.6243C252.343 31.738 252.429 31.8123 252.54 31.8468C252.652 31.8815 252.765 31.8688 252.878 31.8091L253.695 31.38C253.875 31.7829 254.095 32.2113 254.355 32.6661L253.551 33.0888C253.445 33.1443 253.374 33.2309 253.338 33.3486C253.301 33.4663 253.31 33.578 253.366 33.6835L254.09 35.0607C254.145 35.1664 254.232 35.2373 254.349 35.2742C254.467 35.3108 254.579 35.301 254.684 35.2455L255.842 34.637C257.298 36.1635 259.015 37.0834 260.994 37.3964C262.973 37.7097 264.913 37.3664 266.814 36.3674C266.969 36.2862 267.123 36.2002 267.277 36.1085C267.431 36.0169 267.573 35.9268 267.703 35.8381C267.832 35.7495 267.959 35.6598 268.082 35.5689C268.205 35.4781 268.317 35.394 268.416 35.3158C268.515 35.238 268.608 35.1632 268.695 35.0919C268.781 35.02 268.857 34.952 268.921 34.8869C268.986 34.8223 269.041 34.7698 269.088 34.73C269.134 34.69 269.169 34.6531 269.193 34.6202L269.248 34.5758C269.32 34.4964 269.358 34.4011 269.362 34.2901C269.366 34.1796 269.33 34.0818 269.254 33.9971Z" fill="#FBE41A"/>
</g>
<g opacity="0.55" filter="url(#filter2_f_0_1)">
<path opacity="0.2" d="M384.664 185.948C378.064 197.363 363.46 201.266 352.046 194.666C340.632 188.066 336.729 173.462 343.329 162.048C349.929 150.634 364.533 146.731 375.947 153.331C387.361 159.931 391.264 174.534 384.664 185.948Z" fill="#505050"/>
<g opacity="0.8">
<path d="M369.476 164.369L369.097 164.729L361.817 177.319L361.871 177.52L369.713 177.445L369.476 164.369Z" fill="white"/>
<path d="M369.476 164.37L358.024 170.687L361.871 177.521L365.405 171.41L369.476 164.37Z" fill="white"/>
<path d="M360.771 179.422L360.649 179.468L358.056 183.953L358.006 184.205L368.616 179.351L360.771 179.422Z" fill="white"/>
<path d="M358.006 184.205L360.772 179.422L356.924 172.59L358.006 184.205Z" fill="white"/>
<path d="M361.871 177.521L369.713 177.446L365.404 171.41L361.871 177.521Z" fill="white"/>
<path d="M358.024 170.688L361.871 177.521L365.404 171.411L358.024 170.688Z" fill="white"/>
</g>
</g>
<g opacity="0.55" filter="url(#filter3_f_0_1)">
<path opacity="0.2" d="M564.409 111.922C566.661 120.986 561.14 130.159 552.076 132.412C543.012 134.664 533.839 129.143 531.586 120.079C529.334 111.015 534.855 101.842 543.919 99.5894C552.983 97.337 562.156 102.858 564.409 111.922Z" fill="#3CC8C8"/>
<path fill-rule="evenodd" clip-rule="evenodd" d="M547.083 107.602C547.199 107.129 546.567 106.748 546.206 107.069C545.903 107.289 545.94 107.804 546.264 107.988C546.577 108.187 547.04 107.975 547.083 107.602ZM542.511 108.935C542.468 108.651 542.091 108.497 541.865 108.664C541.537 108.846 541.637 109.414 542.01 109.462C542.303 109.542 542.612 109.229 542.511 108.935ZM551.202 107.187C550.796 107.237 550.578 106.627 550.926 106.407C551.184 106.189 551.522 106.393 551.635 106.664C551.633 106.92 551.488 107.19 551.202 107.187ZM544.47 110.719C544.412 110.208 543.711 109.957 543.357 110.331C543.013 110.632 543.11 111.254 543.534 111.43C543.988 111.676 544.572 111.223 544.47 110.719ZM549.86 109.018C549.927 108.481 550.685 108.277 551.017 108.701C551.321 109.019 551.175 109.542 550.829 109.762C550.353 109.98 549.744 109.553 549.86 109.018ZM547.143 109.839C546.754 109.966 546.453 110.374 546.561 110.793C546.624 111.143 546.937 111.363 547.261 111.434C547.291 111.429 547.321 111.424 547.351 111.419C547.517 111.392 547.69 111.363 547.816 111.243C548.153 110.98 548.213 110.425 547.912 110.108C547.733 109.869 547.418 109.827 547.143 109.839ZM540.077 113.056C540.403 112.721 541.03 113.028 540.99 113.487C541 113.872 540.551 114.141 540.215 113.977C539.864 113.832 539.78 113.295 540.077 113.056ZM555.267 109.762C555.203 109.336 554.591 109.176 554.328 109.513C554.044 109.804 554.219 110.35 554.616 110.423C554.989 110.538 555.384 110.136 555.267 109.762ZM548.768 111.698C549.258 111.368 549.956 111.443 550.384 111.852C550.937 112.345 550.946 113.302 550.401 113.799C549.85 114.363 548.814 114.258 548.391 113.583C547.954 112.993 548.147 112.071 548.768 111.698ZM547.453 112.7C547.011 112.154 546.148 112.115 545.622 112.548C545.057 112.994 544.974 113.914 545.459 114.455C545.913 115.027 546.837 115.078 547.358 114.579C547.888 114.118 547.942 113.216 547.453 112.7ZM542.727 114.428C542.676 114.028 542.976 113.685 543.336 113.568C543.743 113.518 544.135 113.749 544.278 114.142C544.351 114.548 544.143 115.014 543.723 115.116C543.272 115.271 542.753 114.908 542.727 114.428ZM553.211 111.921C553.096 111.367 552.338 111.125 551.934 111.521C551.486 111.889 551.647 112.699 552.207 112.862C552.763 113.086 553.388 112.495 553.211 111.921ZM544.971 115.429C545.487 115.137 546.185 115.244 546.584 115.69C547.01 116.134 547.067 116.882 546.7 117.376C546.246 118.08 545.098 118.128 544.594 117.447C544.058 116.841 544.267 115.799 544.971 115.429ZM552.564 114.122C552.152 113.699 551.467 113.646 550.968 113.936C550.264 114.333 550.104 115.401 550.673 115.988C551.166 116.569 552.145 116.562 552.636 115.99C553.114 115.483 553.087 114.593 552.564 114.122ZM541.571 116.957C542.004 116.655 542.666 117.056 542.592 117.583C542.582 118.049 542.013 118.361 541.619 118.118C541.176 117.907 541.145 117.202 541.571 116.957ZM555.192 113.485C554.792 113.608 554.59 114.034 554.703 114.431C554.829 114.598 554.974 114.769 555.186 114.819C555.642 114.942 556.129 114.478 555.981 114.01C555.917 113.643 555.533 113.456 555.192 113.485ZM539.279 117.776C539.535 117.578 539.953 117.741 539.968 118.08C540.043 118.449 539.544 118.722 539.272 118.466C539.046 118.297 539.069 117.944 539.279 117.776ZM558.07 113.308C557.931 113.089 557.58 113.065 557.413 113.261C557.121 113.527 557.41 114.122 557.809 113.983C558.111 113.955 558.271 113.536 558.07 113.308ZM547.186 117.665C547.893 117.278 548.866 117.714 549.066 118.5C549.313 119.283 548.687 120.187 547.867 120.196C547.243 120.248 546.629 119.782 546.496 119.166C546.349 118.581 546.651 117.929 547.186 117.665ZM552.085 117.76C551.897 116.951 550.897 116.511 550.183 116.919C549.756 117.146 549.465 117.621 549.48 118.112C549.454 118.862 550.178 119.523 550.915 119.439C551.712 119.405 552.319 118.531 552.085 117.76ZM544.524 118.839C545.033 118.616 545.68 119.091 545.591 119.654C545.569 120.237 544.823 120.579 544.367 120.221C543.855 119.895 543.964 119.041 544.524 118.839ZM554.522 117.159C554.43 116.63 553.745 116.36 553.321 116.679C552.793 117.005 552.917 117.911 553.517 118.08C554.063 118.299 554.683 117.726 554.522 117.159ZM556.396 118.557C556.124 118.254 556.346 117.707 556.746 117.676C556.926 117.628 557.089 117.732 557.236 117.825L557.262 117.842L557.275 117.876C557.35 118.069 557.435 118.291 557.312 118.481C557.154 118.834 556.61 118.88 556.396 118.557ZM543.081 121.752C543.056 121.308 542.45 121.076 542.151 121.407C541.853 121.668 541.977 122.221 542.356 122.332C542.716 122.468 543.131 122.138 543.081 121.752ZM549.439 120.429C549.857 120.103 550.558 120.367 550.644 120.901C550.822 121.47 550.181 122.055 549.635 121.822C549.051 121.651 548.918 120.753 549.439 120.429ZM547.398 122.403C547.322 121.941 546.693 121.707 546.346 122.02C546.09 122.196 546.054 122.539 546.119 122.822C546.28 123.057 546.543 123.281 546.846 123.213C547.222 123.177 547.503 122.771 547.398 122.403ZM553.002 120.372C553.35 120.013 554.027 120.237 554.108 120.73C554.244 121.234 553.664 121.722 553.198 121.485C552.762 121.317 552.652 120.679 553.002 120.372ZM555.038 122.212C554.757 122.349 554.625 122.74 554.878 122.975C555.146 123.253 555.666 123 555.607 122.613C555.587 122.32 555.289 122.201 555.038 122.212ZM545.631 125.014C545.649 124.774 545.771 124.51 546.044 124.504C546.427 124.437 546.682 124.983 546.396 125.242C546.149 125.517 545.736 125.326 545.631 125.014ZM550.818 123.663C550.498 123.557 550.117 123.821 550.126 124.167C550.077 124.532 550.493 124.854 550.833 124.725C551.023 124.683 551.136 124.511 551.215 124.347C551.215 124.25 551.214 124.152 551.217 124.055L551.214 124.049C551.123 123.886 551.019 123.696 550.818 123.663Z" fill="#3CC8C8"/>
</g>
<g opacity="0.55" filter="url(#filter4_f_0_1)">
<path opacity="0.2" fill-rule="evenodd" clip-rule="evenodd" d="M664.724 217.204C671.492 212.158 672.887 202.582 667.841 195.815C662.796 189.048 653.22 187.652 646.452 192.698C639.685 197.744 638.29 207.32 643.336 214.087C648.381 220.854 657.957 222.249 664.724 217.204Z" fill="#83BD67"/>
<path fill-rule="evenodd" clip-rule="evenodd" d="M650.298 200.097C650.971 199.595 651.642 199.095 652.315 198.593C652.615 199.078 652.914 199.567 653.216 200.05C654.043 199.522 654.995 199.204 655.962 199.065C656.222 200.034 656.48 201.004 656.737 201.974C655.791 201.914 654.826 202.21 654.074 202.786C653.887 202.933 653.717 203.118 653.64 203.345C653.59 203.494 653.596 203.662 653.666 203.803C653.722 203.915 653.81 204.022 653.931 204.071C654.067 204.123 654.22 204.102 654.356 204.058C654.638 203.971 654.882 203.797 655.133 203.648C655.729 203.307 656.349 202.992 657.012 202.802C657.527 202.656 658.082 202.6 658.607 202.732C659.098 202.848 659.54 203.126 659.896 203.484C660.307 203.897 660.645 204.392 660.838 204.949C660.996 205.393 661.056 205.872 661.021 206.341C660.951 207.316 660.465 208.234 659.761 208.901C660.149 209.37 660.541 209.832 660.931 210.299C660.293 210.775 659.657 211.249 659.021 211.723C658.686 211.223 658.359 210.716 658.021 210.217C657.496 210.582 656.904 210.846 656.292 211.021C655.699 211.191 655.085 211.287 654.471 211.321C654.194 210.319 653.916 209.317 653.64 208.311C654.199 208.344 654.767 208.34 655.321 208.247C655.915 208.146 656.498 207.931 656.986 207.574C657.218 207.405 657.447 207.216 657.605 206.974C657.702 206.825 657.769 206.641 657.726 206.461C657.681 206.271 657.542 206.094 657.352 206.036C657.22 205.999 657.082 206.009 656.952 206.041C656.778 206.086 656.617 206.16 656.459 206.243C655.877 206.546 655.303 206.866 654.679 207.077C654.178 207.247 653.649 207.357 653.117 207.315C652.783 207.29 652.454 207.201 652.155 207.047C651.707 206.818 651.336 206.46 651.042 206.055C650.708 205.608 650.46 205.084 650.39 204.525C650.321 204.03 650.401 203.523 650.568 203.056C650.772 202.492 651.085 201.978 651.431 201.492C651.054 201.027 650.676 200.562 650.298 200.097Z" fill="#83BD67"/>
</g>
<g opacity="0.55" filter="url(#filter5_f_0_1)">
<path opacity="0.2" d="M698.086 44.8787C694.012 61.2181 677.462 71.1611 661.121 67.0875C644.787 63.0138 634.843 46.4638 638.918 30.1253C642.989 13.784 659.538 3.83905 675.875 7.91271C692.215 11.9864 702.158 28.5383 698.085 44.8787H698.086Z" fill="#F7931A"/>
<path fill-rule="evenodd" clip-rule="evenodd" d="M677.686 33.9574C678.097 31.2042 676.001 29.7242 673.134 28.7368L674.064 25.0073L671.793 24.4416L670.888 28.0728C670.292 27.9241 669.679 27.7838 669.07 27.6447L669.982 23.9896L667.713 23.4238L666.782 27.152C666.288 27.0395 665.803 26.9283 665.333 26.8113L665.335 26.7997L662.205 26.0179L661.601 28.4426C661.601 28.4426 663.285 28.8286 663.249 28.8526C664.169 29.0821 664.336 29.6905 664.307 30.1729L663.248 34.4216C663.312 34.4378 663.394 34.4611 663.484 34.4973L663.245 34.4378L661.76 40.3896C661.647 40.6689 661.362 41.0879 660.719 40.9289C660.742 40.9618 659.069 40.517 659.069 40.517L657.942 43.1163L660.897 43.8527C661.231 43.9363 661.56 44.0223 661.886 44.1073L661.886 44.1073C662.097 44.1624 662.307 44.217 662.515 44.2704L661.575 48.0432L663.843 48.609L664.774 44.8769C665.393 45.045 665.994 45.2002 666.583 45.3463L665.655 49.061L667.926 49.6267L668.865 45.8617C672.736 46.5942 675.648 46.2988 676.872 42.7981C677.859 39.979 676.823 38.3529 674.786 37.2918C676.27 36.9485 677.387 35.9728 677.685 33.9574H677.686ZM672.499 41.2304C671.855 43.8178 667.804 42.7472 665.952 42.2578L665.952 42.2578C665.786 42.214 665.638 42.1748 665.512 42.1434L666.758 37.1459C666.913 37.1845 667.102 37.2269 667.316 37.275C669.232 37.7048 673.158 38.5859 672.5 41.2304H672.499ZM667.7 34.9569C669.245 35.3691 672.613 36.2676 673.2 33.9172C673.8 31.5126 670.525 30.7878 668.925 30.4339C668.745 30.3941 668.587 30.359 668.457 30.3267L667.327 34.8593C667.434 34.8859 667.559 34.9194 667.7 34.9569Z" fill="#F7931A"/>
</g>
<defs>
<filter id="filter0_f_0_1" x="0" y="154" width="32" height="32" filterUnits="userSpaceOnUse" color-interpolation-filters="sRGB">
<feFlood flood-opacity="0" result="BackgroundImageFix"/>
<feBlend mode="normal" in="SourceGraphic" in2="BackgroundImageFix" result="shape"/>
<feGaussianBlur stdDeviation="1.5" result="effect1_foregroundBlur_0_1"/>
</filter>
<filter id="filter1_f_0_1" x="228.641" y="-2.35938" width="62.7173" height="62.7168" filterUnits="userSpaceOnUse" color-interpolation-filters="sRGB">
<feFlood flood-opacity="0" result="BackgroundImageFix"/>
<feBlend mode="normal" in="SourceGraphic" in2="BackgroundImageFix" result="shape"/>
<feGaussianBlur stdDeviation="1.5" result="effect1_foregroundBlur_0_1"/>
</filter>
<filter id="filter2_f_0_1" x="328.21" y="138.209" width="71.5807" height="71.5801" filterUnits="userSpaceOnUse" color-interpolation-filters="sRGB">
<feFlood flood-opacity="0" result="BackgroundImageFix"/>
<feBlend mode="normal" in="SourceGraphic" in2="BackgroundImageFix" result="shape"/>
<feGaussianBlur stdDeviation="1.5" result="effect1_foregroundBlur_0_1"/>
</filter>
<filter id="filter3_f_0_1" x="525.402" y="93.4004" width="45.1965" height="45.1973" filterUnits="userSpaceOnUse" color-interpolation-filters="sRGB">
<feFlood flood-opacity="0" result="BackgroundImageFix"/>
<feBlend mode="normal" in="SourceGraphic" in2="BackgroundImageFix" result="shape"/>
<feGaussianBlur stdDeviation="1" result="effect1_foregroundBlur_0_1"/>
</filter>
<filter id="filter4_f_0_1" x="631.2" y="180.562" width="48.7777" height="48.7773" filterUnits="userSpaceOnUse" color-interpolation-filters="sRGB">
<feFlood flood-opacity="0" result="BackgroundImageFix"/>
<feBlend mode="normal" in="SourceGraphic" in2="BackgroundImageFix" result="shape"/>
<feGaussianBlur stdDeviation="1.5" result="effect1_foregroundBlur_0_1"/>
</filter>
<filter id="filter5_f_0_1" x="634" y="3" width="69" height="69" filterUnits="userSpaceOnUse" color-interpolation-filters="sRGB">
<feFlood flood-opacity="0" result="BackgroundImageFix"/>
<feBlend mode="normal" in="SourceGraphic" in2="BackgroundImageFix" result="shape"/>
<feGaussianBlur stdDeviation="2" result="effect1_foregroundBlur_0_1"/>
</filter>
</defs>
</svg>
