<svg width="30" height="30" viewBox="0 0 30 30" fill="none" xmlns="http://www.w3.org/2000/svg">
    <path d="M22 11.9375V19.8125C22 20.5371 21.4121 21.125 20.6875 21.125H9.3125C8.58789 21.125 8 20.5371 8 19.8125V11.9375C8 11.2129 8.58789 10.625 9.3125 10.625H11.7188L12.0551 9.72539C12.2465 9.21406 12.7359 8.875 13.2828 8.875H16.7145C17.2613 8.875 17.7508 9.21406 17.9422 9.72539L18.2812 10.625H20.6875C21.4121 10.625 22 11.2129 22 11.9375ZM18.2812 15.875C18.2812 14.0648 16.8102 12.5938 15 12.5938C13.1898 12.5938 11.7188 14.0648 11.7188 15.875C11.7188 17.6852 13.1898 19.1562 15 19.1562C16.8102 19.1562 18.2812 17.6852 18.2812 15.875ZM17.4062 15.875C17.4062 17.2012 16.3262 18.2812 15 18.2812C13.6738 18.2812 12.5938 17.2012 12.5938 15.875C12.5938 14.5488 13.6738 13.4688 15 13.4688C16.3262 13.4688 17.4062 14.5488 17.4062 15.875Z" fill="white"/>
</svg>
