<svg width="42" height="42" viewBox="0 0 42 42" fill="none" xmlns="http://www.w3.org/2000/svg">
    <path fill-rule="evenodd" clip-rule="evenodd" d="M22.8802 15.111C22.5874 14.8181 22.1125 14.8181 21.8196 15.111C21.5267 15.4039 21.5267 15.8788 21.8196 16.1717L25.9355 20.2876L8.85937 20.2876C8.44516 20.2876 8.10937 20.6233 8.10937 21.0376C8.10937 21.4518 8.44516 21.7876 8.85937 21.7876L25.9355 21.7876L21.8196 25.9034C21.5267 26.1963 21.5267 26.6712 21.8196 26.9641C22.1125 27.257 22.5874 27.257 22.8802 26.9641L28.2765 21.5679C28.4171 21.4272 28.4961 21.2365 28.4961 21.0376C28.4961 20.8386 28.4171 20.6479 28.2765 20.5072L22.8802 15.111ZM27.1431 8.29687C28.5785 8.29687 29.5796 8.29846 30.335 8.40002C31.0687 8.49867 31.4573 8.67912 31.7341 8.95588C32.0108 9.23264 32.1913 9.62121 32.2899 10.355C32.3915 11.1103 32.3931 12.1115 32.3931 13.5469L32.3931 28.528C32.3931 29.9634 32.3915 30.9645 32.2899 31.7198C32.1913 32.4536 32.0108 32.8422 31.7341 33.1189C31.4573 33.3957 31.0687 33.5762 30.335 33.6748C29.5796 33.7764 28.5785 33.778 27.1431 33.778L20.2563 33.778C18.8209 33.778 17.8198 33.7764 17.0645 33.6748C16.3307 33.5762 15.9421 33.3957 15.6653 33.1189C15.3886 32.8422 15.2081 32.4536 15.1095 31.7198C15.0079 30.9645 15.0063 29.9634 15.0063 28.528L15.0063 27.1082L15.0063 26.4336C15.0063 26.0194 14.6705 25.6836 14.2563 25.6836C13.8421 25.6836 13.5063 26.0194 13.5063 26.4336L13.5063 27.1082L13.5063 28.528L13.5063 28.5828L13.5063 28.5828C13.5063 29.9504 13.5063 31.0527 13.6229 31.9197C13.7439 32.8198 14.0028 33.5777 14.6047 34.1796C15.2066 34.7815 15.9645 35.0404 16.8646 35.1614C17.7315 35.278 18.8339 35.278 20.2015 35.278L20.2015 35.278L20.2563 35.278L27.1431 35.278L27.198 35.278C28.5655 35.278 29.6679 35.278 30.5348 35.1614C31.4349 35.0404 32.1928 34.7815 32.7947 34.1796C33.3967 33.5777 33.6555 32.8198 33.7766 31.9197C33.8931 31.0527 33.8931 29.9504 33.8931 28.5828L33.8931 28.528L33.8931 13.5469L33.8931 13.492C33.8931 12.1244 33.8931 11.0221 33.7766 10.1551C33.6555 9.25501 33.3967 8.49714 32.7947 7.89522C32.1928 7.2933 31.4349 7.03441 30.5348 6.91339C29.6679 6.79683 28.5656 6.79685 27.198 6.79687L27.1431 6.79687L20.2563 6.79687L20.2015 6.79687C18.8339 6.79685 17.7315 6.79683 16.8646 6.91339C15.9645 7.03441 15.2066 7.2933 14.6047 7.89522C14.0028 8.49714 13.7439 9.25501 13.6229 10.1551C13.5063 11.0221 13.5063 12.1244 13.5063 13.492L13.5063 13.5469L13.5063 14.9667L13.5063 15.6412C13.5063 16.0554 13.8421 16.3912 14.2563 16.3912C14.6705 16.3912 15.0063 16.0554 15.0063 15.6412L15.0063 14.9667L15.0063 13.5469C15.0063 12.1115 15.0079 11.1103 15.1095 10.355C15.2081 9.62122 15.3886 9.23264 15.6653 8.95588C15.9421 8.67912 16.3307 8.49867 17.0645 8.40002C17.8198 8.29846 18.8209 8.29687 20.2563 8.29687L27.1431 8.29687Z" fill="#8E8E8E"/>
</svg>
